<mxfile host="app.diagrams.net" modified="2021-02-18T15:39:55.124Z" agent="5.0 (Windows NT 10.0; Win64; x64) AppleWebKit/537.36 (KHTML, like Gecko) Chrome/88.0.4324.150 Safari/537.36 Edg/88.0.705.68" etag="20OjwGDBxl26QcjeYYAy" version="14.3.2" type="github">
  <diagram id="jmAaHzipr88Q4ZqT1zxg" name="Page-1">
    <mxGraphModel dx="920" dy="512" grid="0" gridSize="10" guides="1" tooltips="1" connect="1" arrows="1" fold="1" page="1" pageScale="1" pageWidth="850" pageHeight="1100" math="0" shadow="0">
      <root>
        <mxCell id="0" />
        <mxCell id="1" parent="0" />
        <mxCell id="XBGdtZCjky0aRlrtTspS-1" value="" style="verticalLabelPosition=bottom;html=1;verticalAlign=top;align=center;strokeColor=none;fillColor=#00BEF2;shape=mxgraph.azure.azure_subscription;" vertex="1" parent="1">
          <mxGeometry x="216.62" y="140" width="40" height="30" as="geometry" />
        </mxCell>
        <mxCell id="XBGdtZCjky0aRlrtTspS-7" value="" style="whiteSpace=wrap;html=1;dashed=1;strokeColor=#001DBC;fontColor=#ffffff;fillColor=none;" vertex="1" parent="1">
          <mxGeometry x="599.59" y="206.25" width="78.38" height="30" as="geometry" />
        </mxCell>
        <mxCell id="XBGdtZCjky0aRlrtTspS-8" value="&lt;font style=&quot;font-size: 7px&quot; color=&quot;#66b2ff&quot;&gt;22 VMs&lt;/font&gt;" style="text;html=1;resizable=0;autosize=1;align=center;verticalAlign=middle;points=[];fillColor=none;strokeColor=none;rounded=0;dashed=1;" vertex="1" parent="1">
          <mxGeometry x="332.88" y="259.91999999999996" width="40" height="20" as="geometry" />
        </mxCell>
        <mxCell id="XBGdtZCjky0aRlrtTspS-10" value="&lt;font color=&quot;#66b2ff&quot;&gt;&lt;span style=&quot;font-size: 6px&quot;&gt;vnet-prod-useast2&lt;/span&gt;&lt;/font&gt;" style="text;html=1;resizable=0;autosize=1;align=center;verticalAlign=middle;points=[];fillColor=none;strokeColor=none;rounded=0;dashed=1;" vertex="1" parent="1">
          <mxGeometry x="613.78" y="267.5" width="60" height="20" as="geometry" />
        </mxCell>
        <mxCell id="XBGdtZCjky0aRlrtTspS-12" value="&lt;font color=&quot;#66b2ff&quot;&gt;&lt;span style=&quot;font-size: 6px&quot;&gt;lv-CI-dev-vnet&lt;/span&gt;&lt;/font&gt;" style="text;html=1;resizable=0;autosize=1;align=center;verticalAlign=middle;points=[];fillColor=none;strokeColor=none;rounded=0;dashed=1;" vertex="1" parent="1">
          <mxGeometry x="345.76" y="277.5" width="50" height="20" as="geometry" />
        </mxCell>
        <mxCell id="XBGdtZCjky0aRlrtTspS-13" value="&lt;font color=&quot;#66b2ff&quot; size=&quot;1&quot;&gt;&lt;b&gt;Bayview DEV/TEST&lt;/b&gt;&lt;/font&gt;" style="text;html=1;resizable=0;autosize=1;align=center;verticalAlign=middle;points=[];fillColor=none;strokeColor=none;rounded=0;dashed=1;" vertex="1" parent="1">
          <mxGeometry x="175.76" y="186.25" width="110" height="20" as="geometry" />
        </mxCell>
        <mxCell id="XBGdtZCjky0aRlrtTspS-15" value="" style="whiteSpace=wrap;html=1;dashed=1;strokeColor=#001DBC;fontColor=#ffffff;fillColor=none;" vertex="1" parent="1">
          <mxGeometry x="230" y="510" width="130" height="69.67" as="geometry" />
        </mxCell>
        <mxCell id="XBGdtZCjky0aRlrtTspS-16" value="" style="aspect=fixed;html=1;points=[];align=center;image;fontSize=12;image=img/lib/azure2/networking/Virtual_Networks.svg;fillColor=none;" vertex="1" parent="1">
          <mxGeometry x="345.88000000000005" y="570" width="17" height="10.15" as="geometry" />
        </mxCell>
        <mxCell id="XBGdtZCjky0aRlrtTspS-17" value="&lt;font color=&quot;#66b2ff&quot; style=&quot;font-size: 7px&quot;&gt;databricks-rg-testdb-pdnd45vqyoywu&lt;/font&gt;" style="text;html=1;resizable=0;autosize=1;align=center;verticalAlign=middle;points=[];fillColor=none;strokeColor=none;rounded=0;dashed=1;" vertex="1" parent="1">
          <mxGeometry x="224.04" y="490" width="130" height="20" as="geometry" />
        </mxCell>
        <mxCell id="XBGdtZCjky0aRlrtTspS-21" value="&lt;font color=&quot;#66b2ff&quot; style=&quot;font-size: 7px&quot;&gt;lv-central-india-network&lt;/font&gt;" style="text;html=1;resizable=0;autosize=1;align=center;verticalAlign=middle;points=[];fillColor=none;strokeColor=none;rounded=0;dashed=1;" vertex="1" parent="1">
          <mxGeometry x="200.76999999999995" y="206.25" width="90" height="20" as="geometry" />
        </mxCell>
        <mxCell id="XBGdtZCjky0aRlrtTspS-23" value="" style="shape=image;verticalLabelPosition=bottom;labelBackgroundColor=#ffffff;verticalAlign=top;aspect=fixed;imageAspect=0;image=data:image/png,iVBORw0KGgoAAAANSUhEUgAAAOEAAADhCAMAAAAJbSJIAAAAkFBMVEUAccb///8AaMMAb8XF1u3I2/AAbcUAa8QAZ8NEjNAAZcIkgMzk7vjh8PmItOAAcsex0OuLr93w9/z3/P681u5hmdVkntbV5fSxyOfq9fsvhM0AdsjS4/Rinde00Ozd6/dNktN0qNuRuuIRecmhxOYAX8B6q9yKteChweUxic+cweQfgcx0odd2qtzF1e2Ss94a2d+PAAAJ70lEQVR42u3dWZequBYA4OzsNgngUEUQZVBQbKvK2+f2//93/VCMCk5M0ZW8naWnyGemnUACgYGTN/QFycDXk4F8c+HcPL63cMKRTt5Z6C2QYGC/sdBnhBD2877CmBNCCOGbdxUuKflNdPeewk0GJES4byiUcQEkhC7fThhZjJQT9733Eh4okmpibPJGQtsV50BCUMzfRugknNQl6q/eQujFNQWYFiP9en2h/UUZaUxIE+e1hfI7oEiuJRRx+MLCU0LJzcRov8b+hNMvfqP8cqNpTF5OKCcu5ff5fuuqf7BfSRjtfcHIQwlpsAtfRDj99tkDxVcYGU++ItWFMvyyzGd4KZKb1lcoVRXK6LAJxPO8DCkS92OqnFBOTkuLU9aSl1VXir67jVQRes63m3DKu9FlSGSUo7F3vPGE0p6GH/t/ftCknGGXuhKTU3MRH0/O1JYDCaU3W4WTj/2fTewH1KSc92OrliYXNPBjd346/DVZrWYzT8ouhSvXdV3DMGLfspJkseBcUM4Y9k47cyLjnArBOSFBkliWZcSGYbiu64YthROTMY5FImMnLCfOmPlXWyElaieqhVqohVqohVqohVqohVqohVqohVqohVqohVqohVqohVqohVqohVqohVqohVqohVqohVqohVqohVqohVqohVqohVqohVqohW8uRGTsnh0p936vHyHSNNVvFOW/H17kDRk16Y/huu7yJ6Fm404+ZNQ0E8N1Xdf4QdO8uieuFyH6Tpr+1B2WwL/X6/V6vU2q+UIe7JxZ8ZftyZeFtT/fYlPZmjfb7qzmXan9CI3846TmwmbK+F/5MxSGc7kha3lZzsLY1ux5juYBjiOciGZhuYTY4qPur7vs3Oc37VtfsnGEsOP3CJlfv+/1TIji0JiR0YT2ZT29FDae7lUVMuvKztjRhOCYN4W4KG12ldNotYpmNUJu2OcbOqUKwstLXwhFcX7JdpkETFBGrM3argqZUfLYzs7wk8Dyjd12NbbQOx+tzoXF16OEpmM4IqP0T1mIVgGcLQVl6SZKRmmyn44qhAO9LuSnbMdt9bdAnhRNFTHvi+ydedYBcXNnb8YQztJfPWbXhdlZSQa7iMyKjG6zK06tmkvyIBljPAzTXEXVgONMiIv039MrIS6Lswuu6iNRHCWmiZL0SydxTRikPWkomsNsno0THnlwM3WvwqmZDdCVAK2pDKNmIcvOipTGg6e+9CxkPC2elbjWl6blI63G4jGzproXRCkhsuz4wzltFtJsONyaTdMlKyvCx0/X6FmIWRdYLp9zIcvP8jw1EPk+K8LH59t9C/NupPS9i1qa5NGYk9QejiXCK5OxkYXFebLFJOMiaiudrCf3NQdk4SL9CWacqCckZtrK5JW5hSidziG/Lg6pw2zqsaYqCvOjnR3aKMRFeXoo11bVmPdXlUURxquJjSUkPOtIssixZgaMQeWUS7mv5Jf9qZku4nFeSV8ujiUk2RHkXhpZ1a1iIFZn796m1K3y7CDTuPSboHffuuYQQkzSCPwgGoUEzXhW/cMJuxgsjLJwpo6Q8GNl8lArJITxeWUOb+dHJ6svJGbaV84oNgsJ0qBaVbPjr/NaWprlKibMo649vSIkBGlwKi+aZme0Z3Vgx9Rsh+Ux/QevCQlBivuirqaxXj5a7EujBZ4+ftNhpoIQWToahByvCn/LsVio45VVkcrF0rsf9O8PFYQE/fT7R3pDSAgRxbJhzMpRm1c3taBqCInY58HzTSFhQRbj/AZCeVT3o7AQedZcxG1haRFcVIaLrVBXWKwl7f5e3RQSM7sBE2C5jsMC1RUSmg52Ng9vC+l3pV6a2ULU2lRYiCxtXOuP20L+XQljimUAl6srLOrpWRkia25c6SodsiyCsS2mrpCIbeW/ZquJyfHiYH0U2XhBz5YTwf45myCrJES064SBvfKrDxtgvtCaL0MWq/qwq5xni6ZCwrOXAJXXvEM3MDkiEoLIRJJz8kgUWXF3NNoEgrP0xpOVRXlKCIul0ctVfW8yNyw0+cLffORFbRejQ2lFDsBzjv/EfhzvTiupRuRdrFbIJiEAgJR29YTcyh1S6/wWsEpzi6KeuteE5+lkVmO51RNPZw0tLIKVO4RzcX4HqvlRDLDnTA1hvmhTuvdU/4TFbEkvZ1ZNr4Hw5gEfYTXRq7ttmU/YixGf1Lz1YOXWLoAi/bl8LYu9XSIfdkU4+fz8/Pz8PNaGZfz4++m/QTE/FizeO5Etf3ub6OMYmE13mVDwzSm0bQkgpW2vDp/G1Uf3eno2kV1bhc4Wq6tBK6cmWoZhWBaa9OptUGRc8MQ3DN8KmLj1IhClni996Ezwe7+rnxHWQi3UQi3UQi3UwrcQ/r+tkKsunLQUhqoLeVthpLyw7buCPAVeD3Q1sailsO5ukEoJiWwrNBQXWtBWOFe7ITK3tXCr9oCY36Z7XjgzlRaKSWshMJUbInJoL3SZys1w2YHQEQoL6akDoVR4REQ+7UAIG3WrabFdqpVQ4fGCrjsRykTValrZfttCWHkoUq3h/g90I7S5ooVIpx0Jy8/uvthgeK8wUnNINKPOhHUnJ7zCtOIBoafgqI8s6lD4zMbA3jvSOXQpVG9MrDyc1IEQtqpNE80tdCtsPLVB4Yj0QaGtVGdzuaWmvVCtAPyekPthYc0j2OP1oxvoQ6hOf4oL2Yvw/ISP8YDmCvoRqtIU71iceVYIRxWIdAf9CbM9kaOOhAb0KQR/7IE/3//fl9AbuUNteuK4OyFEZEwi3ryp3V4I4YhjBlIH+heOSCx2E/UrhMlYvQ39hmGE4NBRSlGcYCghTEaoqPgc8EkhTAa/b/os8FkhhANPiFGsYVghzAI26DDxAUMLwbaGi1ERQxheCLYx1EyDWVMYQwjSHeZ+BjVsGEcIsBcD9DfCbZXHdkLY9j5qYOk8uzGEEC767VKRb2FcIXh+n/0NIyGMLQQ49halIo0lKCCEbU/PESPdd5C7LoQQJX0M/gwnoIoQpNv9sNFuFOxaCLAlrOMaOu8oZ10JYdppDMcTB1QTAszNrmoqCtcGBYWw6qjDYbjtMFddCkEeO1jdQBp7oKoQYNK6GBk/dJuljoUgd61aI4qfKagtBJhYz0dxfHHoPD/dC0HOn2yNKFwPXkEIsPKfCXF44PSRmV6EAAfOHi7APxJeSAi2+1hrpEbYU076EgJMHqiqfLHuLR/9CQFO/L7BkZk7G15SCPbujuaINI76zESvQoAwvtEckfpOv1noWQjgWFeaI3JykPDiQoATNkQAyOhR9n75AYQgv2qNjO+8Aa4+hBDAu+xyGHejQa49jBAgqr4ujpnL1UBXHkoIEG3ys2UZjcPBrjucECByOUNCGF2GA151SCHAascpdcNBrzmsEGB6mg18xf8AZ4bYFeK18xgAAAAASUVORK5CYII=;" vertex="1" parent="1">
          <mxGeometry x="269.3899999999999" y="430.66999999999996" width="26.52" height="26.52" as="geometry" />
        </mxCell>
        <mxCell id="XBGdtZCjky0aRlrtTspS-24" value="" style="whiteSpace=wrap;html=1;strokeColor=#001DBC;fontColor=#ffffff;fillColor=none;" vertex="1" parent="1">
          <mxGeometry x="240" y="520.15" width="46.87" height="39.85" as="geometry" />
        </mxCell>
        <mxCell id="XBGdtZCjky0aRlrtTspS-26" value="&lt;font color=&quot;#66b2ff&quot; style=&quot;font-size: 7px&quot;&gt;bv-dev-itsec&lt;/font&gt;" style="text;html=1;resizable=0;autosize=1;align=center;verticalAlign=middle;points=[];fillColor=none;strokeColor=none;rounded=0;dashed=1;" vertex="1" parent="1">
          <mxGeometry x="410.81000000000006" y="489.40999999999997" width="50" height="20" as="geometry" />
        </mxCell>
        <mxCell id="XBGdtZCjky0aRlrtTspS-27" value="&lt;font style=&quot;font-size: 6px&quot; color=&quot;#66b2ff&quot;&gt;default-subnet&lt;/font&gt;" style="text;html=1;resizable=0;autosize=1;align=center;verticalAlign=middle;points=[];fillColor=none;strokeColor=none;rounded=0;dashed=1;" vertex="1" parent="1">
          <mxGeometry x="282.87999999999994" y="445.34000000000003" width="50" height="20" as="geometry" />
        </mxCell>
        <mxCell id="XBGdtZCjky0aRlrtTspS-28" value="" style="whiteSpace=wrap;html=1;strokeColor=#001DBC;fontColor=#ffffff;fillColor=none;" vertex="1" parent="1">
          <mxGeometry x="286.87" y="236.25" width="123.13" height="46.25" as="geometry" />
        </mxCell>
        <mxCell id="XBGdtZCjky0aRlrtTspS-30" value="&lt;font color=&quot;#66b2ff&quot;&gt;&lt;span style=&quot;font-size: 6px&quot;&gt;vnet-us-east2-fw&lt;/span&gt;&lt;/font&gt;" style="text;html=1;resizable=0;autosize=1;align=center;verticalAlign=middle;points=[];fillColor=none;strokeColor=none;rounded=0;dashed=1;" vertex="1" parent="1">
          <mxGeometry x="611.52" y="211.25000000000003" width="60" height="20" as="geometry" />
        </mxCell>
        <mxCell id="XBGdtZCjky0aRlrtTspS-32" value="" style="aspect=fixed;html=1;points=[];align=center;image;fontSize=12;image=img/lib/azure2/networking/Virtual_Networks.svg;fillColor=none;" vertex="1" parent="1">
          <mxGeometry x="666.4" y="296.1" width="17" height="10.15" as="geometry" />
        </mxCell>
        <mxCell id="XBGdtZCjky0aRlrtTspS-134" style="edgeStyle=orthogonalEdgeStyle;rounded=0;orthogonalLoop=1;jettySize=auto;html=1;entryX=0;entryY=0.5;entryDx=0;entryDy=0;startArrow=classic;startFill=1;endArrow=classic;endFill=1;fillColor=#0050ef;strokeColor=#001DBC;" edge="1" parent="1" source="XBGdtZCjky0aRlrtTspS-34" target="XBGdtZCjky0aRlrtTspS-7">
          <mxGeometry relative="1" as="geometry">
            <Array as="points">
              <mxPoint x="570" y="262" />
              <mxPoint x="570" y="221" />
            </Array>
          </mxGeometry>
        </mxCell>
        <mxCell id="XBGdtZCjky0aRlrtTspS-34" value="" style="whiteSpace=wrap;html=1;dashed=1;strokeColor=#001DBC;fontColor=#ffffff;fillColor=none;" vertex="1" parent="1">
          <mxGeometry x="210" y="230" width="210" height="64.45" as="geometry" />
        </mxCell>
        <mxCell id="XBGdtZCjky0aRlrtTspS-36" value="" style="aspect=fixed;html=1;points=[];align=center;image;fontSize=12;image=img/lib/azure2/general/Resource_Groups.svg;" vertex="1" parent="1">
          <mxGeometry x="210.76999999999998" y="491.19000000000005" width="20" height="18.81" as="geometry" />
        </mxCell>
        <mxCell id="XBGdtZCjky0aRlrtTspS-37" value="&lt;font style=&quot;font-size: 7px&quot; color=&quot;#66b2ff&quot;&gt;vnet-dev-southIndia&lt;/font&gt;" style="text;html=1;resizable=0;autosize=1;align=center;verticalAlign=middle;points=[];fillColor=none;strokeColor=none;rounded=0;dashed=1;" vertex="1" parent="1">
          <mxGeometry x="255" y="455.34" width="80" height="20" as="geometry" />
        </mxCell>
        <mxCell id="XBGdtZCjky0aRlrtTspS-39" value="" style="aspect=fixed;html=1;points=[];align=center;image;fontSize=12;image=img/lib/azure2/compute/Virtual_Machine.svg;fillColor=none;" vertex="1" parent="1">
          <mxGeometry x="323.09" y="243.67000000000002" width="22.92" height="21.25" as="geometry" />
        </mxCell>
        <mxCell id="XBGdtZCjky0aRlrtTspS-40" value="&lt;font style=&quot;font-size: 6px&quot; color=&quot;#66b2ff&quot;&gt;VNet-Peering&lt;/font&gt;" style="text;html=1;resizable=0;autosize=1;align=center;verticalAlign=middle;points=[];fillColor=none;strokeColor=none;rounded=0;dashed=1;" vertex="1" parent="1">
          <mxGeometry x="435.93" y="236.25" width="50" height="20" as="geometry" />
        </mxCell>
        <mxCell id="XBGdtZCjky0aRlrtTspS-41" value="&lt;font style=&quot;font-size: 6px&quot; color=&quot;#66b2ff&quot;&gt;vnet-prod-useast2&lt;/font&gt;" style="text;html=1;resizable=0;autosize=1;align=center;verticalAlign=middle;points=[];fillColor=none;strokeColor=none;rounded=0;dashed=1;" vertex="1" parent="1">
          <mxGeometry x="603.78" y="429.5" width="60" height="20" as="geometry" />
        </mxCell>
        <mxCell id="XBGdtZCjky0aRlrtTspS-43" value="" style="whiteSpace=wrap;html=1;dashed=1;strokeColor=#001DBC;fontColor=#ffffff;fillColor=none;" vertex="1" parent="1">
          <mxGeometry x="602.33" y="429.5" width="78.38" height="30" as="geometry" />
        </mxCell>
        <mxCell id="XBGdtZCjky0aRlrtTspS-44" value="" style="aspect=fixed;html=1;points=[];align=center;image;fontSize=12;image=img/lib/azure2/networking/Virtual_Networks.svg;dashed=1;fillColor=none;" vertex="1" parent="1">
          <mxGeometry x="393.24999999999994" y="287.5" width="16.75" height="10" as="geometry" />
        </mxCell>
        <mxCell id="XBGdtZCjky0aRlrtTspS-45" value="" style="aspect=fixed;html=1;points=[];align=center;image;fontSize=12;image=img/lib/azure2/networking/Virtual_Networks.svg;dashed=1;fillColor=none;" vertex="1" parent="1">
          <mxGeometry x="657.0299999999999" y="233.67000000000002" width="16.75" height="10" as="geometry" />
        </mxCell>
        <mxCell id="XBGdtZCjky0aRlrtTspS-46" value="&lt;font style=&quot;font-size: 6px&quot; color=&quot;#66b2ff&quot;&gt;7 Stopped, 15 running&lt;/font&gt;" style="text;html=1;resizable=0;autosize=1;align=center;verticalAlign=middle;points=[];fillColor=none;strokeColor=none;rounded=0;dashed=1;" vertex="1" parent="1">
          <mxGeometry x="319.38" y="265.5899999999999" width="70" height="20" as="geometry" />
        </mxCell>
        <mxCell id="XBGdtZCjky0aRlrtTspS-47" value="" style="whiteSpace=wrap;html=1;strokeWidth=3;strokeColor=#001DBC;fontColor=#ffffff;fillColor=none;" vertex="1" parent="1">
          <mxGeometry x="145.4" y="160" width="564.6" height="460" as="geometry" />
        </mxCell>
        <mxCell id="XBGdtZCjky0aRlrtTspS-48" value="" style="aspect=fixed;html=1;points=[];align=center;image;fontSize=12;image=img/lib/azure2/general/Subscriptions.svg;strokeWidth=3;fillColor=none;" vertex="1" parent="1">
          <mxGeometry x="162.60000000000002" y="180.1" width="16.2" height="26.15" as="geometry" />
        </mxCell>
        <mxCell id="XBGdtZCjky0aRlrtTspS-49" value="" style="whiteSpace=wrap;html=1;strokeWidth=2;strokeColor=#006EAF;fontColor=#ffffff;fillColor=none;" vertex="1" parent="1">
          <mxGeometry x="171.22" y="191.3" width="378.78" height="408.7" as="geometry" />
        </mxCell>
        <mxCell id="XBGdtZCjky0aRlrtTspS-50" value="&lt;b&gt;&lt;font style=&quot;font-size: 14px&quot; color=&quot;#0000cc&quot;&gt;BayView Dev/Test&lt;/font&gt;&lt;/b&gt;" style="text;html=1;resizable=0;autosize=1;align=center;verticalAlign=middle;points=[];fillColor=none;strokeColor=none;rounded=0;" vertex="1" parent="1">
          <mxGeometry x="300" y="130" width="130" height="20" as="geometry" />
        </mxCell>
        <mxCell id="XBGdtZCjky0aRlrtTspS-51" value="" style="aspect=fixed;html=1;points=[];align=center;image;fontSize=12;image=img/lib/azure2/compute/Virtual_Machine.svg;" vertex="1" parent="1">
          <mxGeometry x="460.81000000000006" y="529" width="20.49" height="19" as="geometry" />
        </mxCell>
        <mxCell id="XBGdtZCjky0aRlrtTspS-52" value="&lt;font style=&quot;font-size: 6px&quot; color=&quot;#66b2ff&quot;&gt;public-subnet&lt;/font&gt;" style="text;html=1;resizable=0;autosize=1;align=center;verticalAlign=middle;points=[];fillColor=none;strokeColor=none;rounded=0;dashed=1;" vertex="1" parent="1">
          <mxGeometry x="236.87" y="540" width="50" height="20" as="geometry" />
        </mxCell>
        <mxCell id="XBGdtZCjky0aRlrtTspS-53" value="&lt;font style=&quot;font-size: 6px&quot; color=&quot;#66b2ff&quot;&gt;VNet-Peering&lt;/font&gt;" style="text;html=1;resizable=0;autosize=1;align=center;verticalAlign=middle;points=[];fillColor=none;strokeColor=none;rounded=0;dashed=1;" vertex="1" parent="1">
          <mxGeometry x="380" y="425.34" width="50" height="20" as="geometry" />
        </mxCell>
        <mxCell id="XBGdtZCjky0aRlrtTspS-58" value="" style="shape=image;verticalLabelPosition=bottom;labelBackgroundColor=#ffffff;verticalAlign=top;aspect=fixed;imageAspect=0;image=data:image/png,iVBORw0KGgoAAAANSUhEUgAAAOEAAADhCAMAAAAJbSJIAAAAkFBMVEUAccb///8AaMMAb8XF1u3I2/AAbcUAa8QAZ8NEjNAAZcIkgMzk7vjh8PmItOAAcsex0OuLr93w9/z3/P681u5hmdVkntbV5fSxyOfq9fsvhM0AdsjS4/Rinde00Ozd6/dNktN0qNuRuuIRecmhxOYAX8B6q9yKteChweUxic+cweQfgcx0odd2qtzF1e2Ss94a2d+PAAAJ70lEQVR42u3dWZequBYA4OzsNgngUEUQZVBQbKvK2+f2//93/VCMCk5M0ZW8naWnyGemnUACgYGTN/QFycDXk4F8c+HcPL63cMKRTt5Z6C2QYGC/sdBnhBD2877CmBNCCOGbdxUuKflNdPeewk0GJES4byiUcQEkhC7fThhZjJQT9733Eh4okmpibPJGQtsV50BCUMzfRugknNQl6q/eQujFNQWYFiP9en2h/UUZaUxIE+e1hfI7oEiuJRRx+MLCU0LJzcRov8b+hNMvfqP8cqNpTF5OKCcu5ff5fuuqf7BfSRjtfcHIQwlpsAtfRDj99tkDxVcYGU++ItWFMvyyzGd4KZKb1lcoVRXK6LAJxPO8DCkS92OqnFBOTkuLU9aSl1VXir67jVQRes63m3DKu9FlSGSUo7F3vPGE0p6GH/t/ftCknGGXuhKTU3MRH0/O1JYDCaU3W4WTj/2fTewH1KSc92OrliYXNPBjd346/DVZrWYzT8ouhSvXdV3DMGLfspJkseBcUM4Y9k47cyLjnArBOSFBkliWZcSGYbiu64YthROTMY5FImMnLCfOmPlXWyElaieqhVqohVqohVqohVqohVqohVqohVqohVqohVqohVqohVqohVqohVqohVqohVqohVqohVqohVqohVqohVqohVqohVqohVqohW8uRGTsnh0p936vHyHSNNVvFOW/H17kDRk16Y/huu7yJ6Fm404+ZNQ0E8N1Xdf4QdO8uieuFyH6Tpr+1B2WwL/X6/V6vU2q+UIe7JxZ8ZftyZeFtT/fYlPZmjfb7qzmXan9CI3846TmwmbK+F/5MxSGc7kha3lZzsLY1ux5juYBjiOciGZhuYTY4qPur7vs3Oc37VtfsnGEsOP3CJlfv+/1TIji0JiR0YT2ZT29FDae7lUVMuvKztjRhOCYN4W4KG12ldNotYpmNUJu2OcbOqUKwstLXwhFcX7JdpkETFBGrM3argqZUfLYzs7wk8Dyjd12NbbQOx+tzoXF16OEpmM4IqP0T1mIVgGcLQVl6SZKRmmyn44qhAO9LuSnbMdt9bdAnhRNFTHvi+ydedYBcXNnb8YQztJfPWbXhdlZSQa7iMyKjG6zK06tmkvyIBljPAzTXEXVgONMiIv039MrIS6Lswuu6iNRHCWmiZL0SydxTRikPWkomsNsno0THnlwM3WvwqmZDdCVAK2pDKNmIcvOipTGg6e+9CxkPC2elbjWl6blI63G4jGzproXRCkhsuz4wzltFtJsONyaTdMlKyvCx0/X6FmIWRdYLp9zIcvP8jw1EPk+K8LH59t9C/NupPS9i1qa5NGYk9QejiXCK5OxkYXFebLFJOMiaiudrCf3NQdk4SL9CWacqCckZtrK5JW5hSidziG/Lg6pw2zqsaYqCvOjnR3aKMRFeXoo11bVmPdXlUURxquJjSUkPOtIssixZgaMQeWUS7mv5Jf9qZku4nFeSV8ujiUk2RHkXhpZ1a1iIFZn796m1K3y7CDTuPSboHffuuYQQkzSCPwgGoUEzXhW/cMJuxgsjLJwpo6Q8GNl8lArJITxeWUOb+dHJ6svJGbaV84oNgsJ0qBaVbPjr/NaWprlKibMo649vSIkBGlwKi+aZme0Z3Vgx9Rsh+Ux/QevCQlBivuirqaxXj5a7EujBZ4+ftNhpoIQWToahByvCn/LsVio45VVkcrF0rsf9O8PFYQE/fT7R3pDSAgRxbJhzMpRm1c3taBqCInY58HzTSFhQRbj/AZCeVT3o7AQedZcxG1haRFcVIaLrVBXWKwl7f5e3RQSM7sBE2C5jsMC1RUSmg52Ng9vC+l3pV6a2ULU2lRYiCxtXOuP20L+XQljimUAl6srLOrpWRkia25c6SodsiyCsS2mrpCIbeW/ZquJyfHiYH0U2XhBz5YTwf45myCrJES064SBvfKrDxtgvtCaL0MWq/qwq5xni6ZCwrOXAJXXvEM3MDkiEoLIRJJz8kgUWXF3NNoEgrP0xpOVRXlKCIul0ctVfW8yNyw0+cLffORFbRejQ2lFDsBzjv/EfhzvTiupRuRdrFbIJiEAgJR29YTcyh1S6/wWsEpzi6KeuteE5+lkVmO51RNPZw0tLIKVO4RzcX4HqvlRDLDnTA1hvmhTuvdU/4TFbEkvZ1ZNr4Hw5gEfYTXRq7ttmU/YixGf1Lz1YOXWLoAi/bl8LYu9XSIfdkU4+fz8/Pz8PNaGZfz4++m/QTE/FizeO5Etf3ub6OMYmE13mVDwzSm0bQkgpW2vDp/G1Uf3eno2kV1bhc4Wq6tBK6cmWoZhWBaa9OptUGRc8MQ3DN8KmLj1IhClni996Ezwe7+rnxHWQi3UQi3UQi3UwrcQ/r+tkKsunLQUhqoLeVthpLyw7buCPAVeD3Q1sailsO5ukEoJiWwrNBQXWtBWOFe7ITK3tXCr9oCY36Z7XjgzlRaKSWshMJUbInJoL3SZys1w2YHQEQoL6akDoVR4REQ+7UAIG3WrabFdqpVQ4fGCrjsRykTValrZfttCWHkoUq3h/g90I7S5ooVIpx0Jy8/uvthgeK8wUnNINKPOhHUnJ7zCtOIBoafgqI8s6lD4zMbA3jvSOXQpVG9MrDyc1IEQtqpNE80tdCtsPLVB4Yj0QaGtVGdzuaWmvVCtAPyekPthYc0j2OP1oxvoQ6hOf4oL2Yvw/ISP8YDmCvoRqtIU71iceVYIRxWIdAf9CbM9kaOOhAb0KQR/7IE/3//fl9AbuUNteuK4OyFEZEwi3ryp3V4I4YhjBlIH+heOSCx2E/UrhMlYvQ39hmGE4NBRSlGcYCghTEaoqPgc8EkhTAa/b/os8FkhhANPiFGsYVghzAI26DDxAUMLwbaGi1ERQxheCLYx1EyDWVMYQwjSHeZ+BjVsGEcIsBcD9DfCbZXHdkLY9j5qYOk8uzGEEC767VKRb2FcIXh+n/0NIyGMLQQ49halIo0lKCCEbU/PESPdd5C7LoQQJX0M/gwnoIoQpNv9sNFuFOxaCLAlrOMaOu8oZ10JYdppDMcTB1QTAszNrmoqCtcGBYWw6qjDYbjtMFddCkEeO1jdQBp7oKoQYNK6GBk/dJuljoUgd61aI4qfKagtBJhYz0dxfHHoPD/dC0HOn2yNKFwPXkEIsPKfCXF44PSRmV6EAAfOHi7APxJeSAi2+1hrpEbYU076EgJMHqiqfLHuLR/9CQFO/L7BkZk7G15SCPbujuaINI76zESvQoAwvtEckfpOv1noWQjgWFeaI3JykPDiQoATNkQAyOhR9n75AYQgv2qNjO+8Aa4+hBDAu+xyGHejQa49jBAgqr4ujpnL1UBXHkoIEG3ys2UZjcPBrjucECByOUNCGF2GA151SCHAascpdcNBrzmsEGB6mg18xf8AZ4bYFeK18xgAAAAASUVORK5CYII=;" vertex="1" parent="1">
          <mxGeometry x="236.87" y="248.67" width="16.25" height="16.25" as="geometry" />
        </mxCell>
        <mxCell id="XBGdtZCjky0aRlrtTspS-59" value="&lt;font style=&quot;font-size: 6px&quot; color=&quot;#66b2ff&quot;&gt;AzureBastionSubnet&lt;/font&gt;" style="text;html=1;resizable=0;autosize=1;align=center;verticalAlign=middle;points=[];fillColor=none;strokeColor=none;rounded=0;dashed=1;" vertex="1" parent="1">
          <mxGeometry x="210.76999999999998" y="262.5" width="70" height="20" as="geometry" />
        </mxCell>
        <mxCell id="XBGdtZCjky0aRlrtTspS-60" value="" style="shape=image;verticalLabelPosition=bottom;labelBackgroundColor=#ffffff;verticalAlign=top;aspect=fixed;imageAspect=0;image=data:image/png,iVBORw0KGgoAAAANSUhEUgAAAOEAAADhCAMAAAAJbSJIAAAAkFBMVEUAccb///8AaMMAb8XF1u3I2/AAbcUAa8QAZ8NEjNAAZcIkgMzk7vjh8PmItOAAcsex0OuLr93w9/z3/P681u5hmdVkntbV5fSxyOfq9fsvhM0AdsjS4/Rinde00Ozd6/dNktN0qNuRuuIRecmhxOYAX8B6q9yKteChweUxic+cweQfgcx0odd2qtzF1e2Ss94a2d+PAAAJ70lEQVR42u3dWZequBYA4OzsNgngUEUQZVBQbKvK2+f2//93/VCMCk5M0ZW8naWnyGemnUACgYGTN/QFycDXk4F8c+HcPL63cMKRTt5Z6C2QYGC/sdBnhBD2877CmBNCCOGbdxUuKflNdPeewk0GJES4byiUcQEkhC7fThhZjJQT9733Eh4okmpibPJGQtsV50BCUMzfRugknNQl6q/eQujFNQWYFiP9en2h/UUZaUxIE+e1hfI7oEiuJRRx+MLCU0LJzcRov8b+hNMvfqP8cqNpTF5OKCcu5ff5fuuqf7BfSRjtfcHIQwlpsAtfRDj99tkDxVcYGU++ItWFMvyyzGd4KZKb1lcoVRXK6LAJxPO8DCkS92OqnFBOTkuLU9aSl1VXir67jVQRes63m3DKu9FlSGSUo7F3vPGE0p6GH/t/ftCknGGXuhKTU3MRH0/O1JYDCaU3W4WTj/2fTewH1KSc92OrliYXNPBjd346/DVZrWYzT8ouhSvXdV3DMGLfspJkseBcUM4Y9k47cyLjnArBOSFBkliWZcSGYbiu64YthROTMY5FImMnLCfOmPlXWyElaieqhVqohVqohVqohVqohVqohVqohVqohVqohVqohVqohVqohVqohVqohVqohVqohVqohVqohVqohVqohVqohVqohVqohVqohW8uRGTsnh0p936vHyHSNNVvFOW/H17kDRk16Y/huu7yJ6Fm404+ZNQ0E8N1Xdf4QdO8uieuFyH6Tpr+1B2WwL/X6/V6vU2q+UIe7JxZ8ZftyZeFtT/fYlPZmjfb7qzmXan9CI3846TmwmbK+F/5MxSGc7kha3lZzsLY1ux5juYBjiOciGZhuYTY4qPur7vs3Oc37VtfsnGEsOP3CJlfv+/1TIji0JiR0YT2ZT29FDae7lUVMuvKztjRhOCYN4W4KG12ldNotYpmNUJu2OcbOqUKwstLXwhFcX7JdpkETFBGrM3argqZUfLYzs7wk8Dyjd12NbbQOx+tzoXF16OEpmM4IqP0T1mIVgGcLQVl6SZKRmmyn44qhAO9LuSnbMdt9bdAnhRNFTHvi+ydedYBcXNnb8YQztJfPWbXhdlZSQa7iMyKjG6zK06tmkvyIBljPAzTXEXVgONMiIv039MrIS6Lswuu6iNRHCWmiZL0SydxTRikPWkomsNsno0THnlwM3WvwqmZDdCVAK2pDKNmIcvOipTGg6e+9CxkPC2elbjWl6blI63G4jGzproXRCkhsuz4wzltFtJsONyaTdMlKyvCx0/X6FmIWRdYLp9zIcvP8jw1EPk+K8LH59t9C/NupPS9i1qa5NGYk9QejiXCK5OxkYXFebLFJOMiaiudrCf3NQdk4SL9CWacqCckZtrK5JW5hSidziG/Lg6pw2zqsaYqCvOjnR3aKMRFeXoo11bVmPdXlUURxquJjSUkPOtIssixZgaMQeWUS7mv5Jf9qZku4nFeSV8ujiUk2RHkXhpZ1a1iIFZn796m1K3y7CDTuPSboHffuuYQQkzSCPwgGoUEzXhW/cMJuxgsjLJwpo6Q8GNl8lArJITxeWUOb+dHJ6svJGbaV84oNgsJ0qBaVbPjr/NaWprlKibMo649vSIkBGlwKi+aZme0Z3Vgx9Rsh+Ux/QevCQlBivuirqaxXj5a7EujBZ4+ftNhpoIQWToahByvCn/LsVio45VVkcrF0rsf9O8PFYQE/fT7R3pDSAgRxbJhzMpRm1c3taBqCInY58HzTSFhQRbj/AZCeVT3o7AQedZcxG1haRFcVIaLrVBXWKwl7f5e3RQSM7sBE2C5jsMC1RUSmg52Ng9vC+l3pV6a2ULU2lRYiCxtXOuP20L+XQljimUAl6srLOrpWRkia25c6SodsiyCsS2mrpCIbeW/ZquJyfHiYH0U2XhBz5YTwf45myCrJES064SBvfKrDxtgvtCaL0MWq/qwq5xni6ZCwrOXAJXXvEM3MDkiEoLIRJJz8kgUWXF3NNoEgrP0xpOVRXlKCIul0ctVfW8yNyw0+cLffORFbRejQ2lFDsBzjv/EfhzvTiupRuRdrFbIJiEAgJR29YTcyh1S6/wWsEpzi6KeuteE5+lkVmO51RNPZw0tLIKVO4RzcX4HqvlRDLDnTA1hvmhTuvdU/4TFbEkvZ1ZNr4Hw5gEfYTXRq7ttmU/YixGf1Lz1YOXWLoAi/bl8LYu9XSIfdkU4+fz8/Pz8PNaGZfz4++m/QTE/FizeO5Etf3ub6OMYmE13mVDwzSm0bQkgpW2vDp/G1Uf3eno2kV1bhc4Wq6tBK6cmWoZhWBaa9OptUGRc8MQ3DN8KmLj1IhClni996Ezwe7+rnxHWQi3UQi3UQi3UwrcQ/r+tkKsunLQUhqoLeVthpLyw7buCPAVeD3Q1sailsO5ukEoJiWwrNBQXWtBWOFe7ITK3tXCr9oCY36Z7XjgzlRaKSWshMJUbInJoL3SZys1w2YHQEQoL6akDoVR4REQ+7UAIG3WrabFdqpVQ4fGCrjsRykTValrZfttCWHkoUq3h/g90I7S5ooVIpx0Jy8/uvthgeK8wUnNINKPOhHUnJ7zCtOIBoafgqI8s6lD4zMbA3jvSOXQpVG9MrDyc1IEQtqpNE80tdCtsPLVB4Yj0QaGtVGdzuaWmvVCtAPyekPthYc0j2OP1oxvoQ6hOf4oL2Yvw/ISP8YDmCvoRqtIU71iceVYIRxWIdAf9CbM9kaOOhAb0KQR/7IE/3//fl9AbuUNteuK4OyFEZEwi3ryp3V4I4YhjBlIH+heOSCx2E/UrhMlYvQ39hmGE4NBRSlGcYCghTEaoqPgc8EkhTAa/b/os8FkhhANPiFGsYVghzAI26DDxAUMLwbaGi1ERQxheCLYx1EyDWVMYQwjSHeZ+BjVsGEcIsBcD9DfCbZXHdkLY9j5qYOk8uzGEEC767VKRb2FcIXh+n/0NIyGMLQQ49halIo0lKCCEbU/PESPdd5C7LoQQJX0M/gwnoIoQpNv9sNFuFOxaCLAlrOMaOu8oZ10JYdppDMcTB1QTAszNrmoqCtcGBYWw6qjDYbjtMFddCkEeO1jdQBp7oKoQYNK6GBk/dJuljoUgd61aI4qfKagtBJhYz0dxfHHoPD/dC0HOn2yNKFwPXkEIsPKfCXF44PSRmV6EAAfOHi7APxJeSAi2+1hrpEbYU076EgJMHqiqfLHuLR/9CQFO/L7BkZk7G15SCPbujuaINI76zESvQoAwvtEckfpOv1noWQjgWFeaI3JykPDiQoATNkQAyOhR9n75AYQgv2qNjO+8Aa4+hBDAu+xyGHejQa49jBAgqr4ujpnL1UBXHkoIEG3ys2UZjcPBrjucECByOUNCGF2GA151SCHAascpdcNBrzmsEGB6mg18xf8AZ4bYFeK18xgAAAAASUVORK5CYII=;" vertex="1" parent="1">
          <mxGeometry x="297.53999999999996" y="243.67" width="16.25" height="16.25" as="geometry" />
        </mxCell>
        <mxCell id="XBGdtZCjky0aRlrtTspS-61" value="" style="whiteSpace=wrap;html=1;strokeColor=#001DBC;fontColor=#ffffff;fillColor=none;" vertex="1" parent="1">
          <mxGeometry x="216.62" y="236.25" width="63.38" height="46.25" as="geometry" />
        </mxCell>
        <mxCell id="XBGdtZCjky0aRlrtTspS-62" value="&lt;font style=&quot;font-size: 6px&quot; color=&quot;#66b2ff&quot;&gt;bv-dev-subnet&lt;/font&gt;" style="text;html=1;resizable=0;autosize=1;align=center;verticalAlign=middle;points=[];fillColor=none;strokeColor=none;rounded=0;dashed=1;" vertex="1" parent="1">
          <mxGeometry x="285" y="259.92" width="50" height="20" as="geometry" />
        </mxCell>
        <mxCell id="XBGdtZCjky0aRlrtTspS-63" value="" style="whiteSpace=wrap;html=1;strokeColor=#001DBC;fontColor=#ffffff;fillColor=none;strokeWidth=2;" vertex="1" parent="1">
          <mxGeometry x="199.86" y="210" width="240.14" height="100" as="geometry" />
        </mxCell>
        <mxCell id="XBGdtZCjky0aRlrtTspS-67" value="" style="shape=image;verticalLabelPosition=bottom;labelBackgroundColor=#ffffff;verticalAlign=top;aspect=fixed;imageAspect=0;image=data:image/png,iVBORw0KGgoAAAANSUhEUgAAAOEAAADhCAMAAAAJbSJIAAAAkFBMVEUAccb///8AaMMAb8XF1u3I2/AAbcUAa8QAZ8NEjNAAZcIkgMzk7vjh8PmItOAAcsex0OuLr93w9/z3/P681u5hmdVkntbV5fSxyOfq9fsvhM0AdsjS4/Rinde00Ozd6/dNktN0qNuRuuIRecmhxOYAX8B6q9yKteChweUxic+cweQfgcx0odd2qtzF1e2Ss94a2d+PAAAJ70lEQVR42u3dWZequBYA4OzsNgngUEUQZVBQbKvK2+f2//93/VCMCk5M0ZW8naWnyGemnUACgYGTN/QFycDXk4F8c+HcPL63cMKRTt5Z6C2QYGC/sdBnhBD2877CmBNCCOGbdxUuKflNdPeewk0GJES4byiUcQEkhC7fThhZjJQT9733Eh4okmpibPJGQtsV50BCUMzfRugknNQl6q/eQujFNQWYFiP9en2h/UUZaUxIE+e1hfI7oEiuJRRx+MLCU0LJzcRov8b+hNMvfqP8cqNpTF5OKCcu5ff5fuuqf7BfSRjtfcHIQwlpsAtfRDj99tkDxVcYGU++ItWFMvyyzGd4KZKb1lcoVRXK6LAJxPO8DCkS92OqnFBOTkuLU9aSl1VXir67jVQRes63m3DKu9FlSGSUo7F3vPGE0p6GH/t/ftCknGGXuhKTU3MRH0/O1JYDCaU3W4WTj/2fTewH1KSc92OrliYXNPBjd346/DVZrWYzT8ouhSvXdV3DMGLfspJkseBcUM4Y9k47cyLjnArBOSFBkliWZcSGYbiu64YthROTMY5FImMnLCfOmPlXWyElaieqhVqohVqohVqohVqohVqohVqohVqohVqohVqohVqohVqohVqohVqohVqohVqohVqohVqohVqohVqohVqohVqohVqohVqohW8uRGTsnh0p936vHyHSNNVvFOW/H17kDRk16Y/huu7yJ6Fm404+ZNQ0E8N1Xdf4QdO8uieuFyH6Tpr+1B2WwL/X6/V6vU2q+UIe7JxZ8ZftyZeFtT/fYlPZmjfb7qzmXan9CI3846TmwmbK+F/5MxSGc7kha3lZzsLY1ux5juYBjiOciGZhuYTY4qPur7vs3Oc37VtfsnGEsOP3CJlfv+/1TIji0JiR0YT2ZT29FDae7lUVMuvKztjRhOCYN4W4KG12ldNotYpmNUJu2OcbOqUKwstLXwhFcX7JdpkETFBGrM3argqZUfLYzs7wk8Dyjd12NbbQOx+tzoXF16OEpmM4IqP0T1mIVgGcLQVl6SZKRmmyn44qhAO9LuSnbMdt9bdAnhRNFTHvi+ydedYBcXNnb8YQztJfPWbXhdlZSQa7iMyKjG6zK06tmkvyIBljPAzTXEXVgONMiIv039MrIS6Lswuu6iNRHCWmiZL0SydxTRikPWkomsNsno0THnlwM3WvwqmZDdCVAK2pDKNmIcvOipTGg6e+9CxkPC2elbjWl6blI63G4jGzproXRCkhsuz4wzltFtJsONyaTdMlKyvCx0/X6FmIWRdYLp9zIcvP8jw1EPk+K8LH59t9C/NupPS9i1qa5NGYk9QejiXCK5OxkYXFebLFJOMiaiudrCf3NQdk4SL9CWacqCckZtrK5JW5hSidziG/Lg6pw2zqsaYqCvOjnR3aKMRFeXoo11bVmPdXlUURxquJjSUkPOtIssixZgaMQeWUS7mv5Jf9qZku4nFeSV8ujiUk2RHkXhpZ1a1iIFZn796m1K3y7CDTuPSboHffuuYQQkzSCPwgGoUEzXhW/cMJuxgsjLJwpo6Q8GNl8lArJITxeWUOb+dHJ6svJGbaV84oNgsJ0qBaVbPjr/NaWprlKibMo649vSIkBGlwKi+aZme0Z3Vgx9Rsh+Ux/QevCQlBivuirqaxXj5a7EujBZ4+ftNhpoIQWToahByvCn/LsVio45VVkcrF0rsf9O8PFYQE/fT7R3pDSAgRxbJhzMpRm1c3taBqCInY58HzTSFhQRbj/AZCeVT3o7AQedZcxG1haRFcVIaLrVBXWKwl7f5e3RQSM7sBE2C5jsMC1RUSmg52Ng9vC+l3pV6a2ULU2lRYiCxtXOuP20L+XQljimUAl6srLOrpWRkia25c6SodsiyCsS2mrpCIbeW/ZquJyfHiYH0U2XhBz5YTwf45myCrJES064SBvfKrDxtgvtCaL0MWq/qwq5xni6ZCwrOXAJXXvEM3MDkiEoLIRJJz8kgUWXF3NNoEgrP0xpOVRXlKCIul0ctVfW8yNyw0+cLffORFbRejQ2lFDsBzjv/EfhzvTiupRuRdrFbIJiEAgJR29YTcyh1S6/wWsEpzi6KeuteE5+lkVmO51RNPZw0tLIKVO4RzcX4HqvlRDLDnTA1hvmhTuvdU/4TFbEkvZ1ZNr4Hw5gEfYTXRq7ttmU/YixGf1Lz1YOXWLoAi/bl8LYu9XSIfdkU4+fz8/Pz8PNaGZfz4++m/QTE/FizeO5Etf3ub6OMYmE13mVDwzSm0bQkgpW2vDp/G1Uf3eno2kV1bhc4Wq6tBK6cmWoZhWBaa9OptUGRc8MQ3DN8KmLj1IhClni996Ezwe7+rnxHWQi3UQi3UQi3UwrcQ/r+tkKsunLQUhqoLeVthpLyw7buCPAVeD3Q1sailsO5ukEoJiWwrNBQXWtBWOFe7ITK3tXCr9oCY36Z7XjgzlRaKSWshMJUbInJoL3SZys1w2YHQEQoL6akDoVR4REQ+7UAIG3WrabFdqpVQ4fGCrjsRykTValrZfttCWHkoUq3h/g90I7S5ooVIpx0Jy8/uvthgeK8wUnNINKPOhHUnJ7zCtOIBoafgqI8s6lD4zMbA3jvSOXQpVG9MrDyc1IEQtqpNE80tdCtsPLVB4Yj0QaGtVGdzuaWmvVCtAPyekPthYc0j2OP1oxvoQ6hOf4oL2Yvw/ISP8YDmCvoRqtIU71iceVYIRxWIdAf9CbM9kaOOhAb0KQR/7IE/3//fl9AbuUNteuK4OyFEZEwi3ryp3V4I4YhjBlIH+heOSCx2E/UrhMlYvQ39hmGE4NBRSlGcYCghTEaoqPgc8EkhTAa/b/os8FkhhANPiFGsYVghzAI26DDxAUMLwbaGi1ERQxheCLYx1EyDWVMYQwjSHeZ+BjVsGEcIsBcD9DfCbZXHdkLY9j5qYOk8uzGEEC767VKRb2FcIXh+n/0NIyGMLQQ49halIo0lKCCEbU/PESPdd5C7LoQQJX0M/gwnoIoQpNv9sNFuFOxaCLAlrOMaOu8oZ10JYdppDMcTB1QTAszNrmoqCtcGBYWw6qjDYbjtMFddCkEeO1jdQBp7oKoQYNK6GBk/dJuljoUgd61aI4qfKagtBJhYz0dxfHHoPD/dC0HOn2yNKFwPXkEIsPKfCXF44PSRmV6EAAfOHi7APxJeSAi2+1hrpEbYU076EgJMHqiqfLHuLR/9CQFO/L7BkZk7G15SCPbujuaINI76zESvQoAwvtEckfpOv1noWQjgWFeaI3JykPDiQoATNkQAyOhR9n75AYQgv2qNjO+8Aa4+hBDAu+xyGHejQa49jBAgqr4ujpnL1UBXHkoIEG3ys2UZjcPBrjucECByOUNCGF2GA151SCHAascpdcNBrzmsEGB6mg18xf8AZ4bYFeK18xgAAAAASUVORK5CYII=;" vertex="1" parent="1">
          <mxGeometry x="249.95999999999998" y="529" width="20.67" height="20.67" as="geometry" />
        </mxCell>
        <mxCell id="XBGdtZCjky0aRlrtTspS-68" value="" style="shape=image;verticalLabelPosition=bottom;labelBackgroundColor=#ffffff;verticalAlign=top;aspect=fixed;imageAspect=0;image=data:image/png,iVBORw0KGgoAAAANSUhEUgAAAOEAAADhCAMAAAAJbSJIAAAAkFBMVEUAccb///8AaMMAb8XF1u3I2/AAbcUAa8QAZ8NEjNAAZcIkgMzk7vjh8PmItOAAcsex0OuLr93w9/z3/P681u5hmdVkntbV5fSxyOfq9fsvhM0AdsjS4/Rinde00Ozd6/dNktN0qNuRuuIRecmhxOYAX8B6q9yKteChweUxic+cweQfgcx0odd2qtzF1e2Ss94a2d+PAAAJ70lEQVR42u3dWZequBYA4OzsNgngUEUQZVBQbKvK2+f2//93/VCMCk5M0ZW8naWnyGemnUACgYGTN/QFycDXk4F8c+HcPL63cMKRTt5Z6C2QYGC/sdBnhBD2877CmBNCCOGbdxUuKflNdPeewk0GJES4byiUcQEkhC7fThhZjJQT9733Eh4okmpibPJGQtsV50BCUMzfRugknNQl6q/eQujFNQWYFiP9en2h/UUZaUxIE+e1hfI7oEiuJRRx+MLCU0LJzcRov8b+hNMvfqP8cqNpTF5OKCcu5ff5fuuqf7BfSRjtfcHIQwlpsAtfRDj99tkDxVcYGU++ItWFMvyyzGd4KZKb1lcoVRXK6LAJxPO8DCkS92OqnFBOTkuLU9aSl1VXir67jVQRes63m3DKu9FlSGSUo7F3vPGE0p6GH/t/ftCknGGXuhKTU3MRH0/O1JYDCaU3W4WTj/2fTewH1KSc92OrliYXNPBjd346/DVZrWYzT8ouhSvXdV3DMGLfspJkseBcUM4Y9k47cyLjnArBOSFBkliWZcSGYbiu64YthROTMY5FImMnLCfOmPlXWyElaieqhVqohVqohVqohVqohVqohVqohVqohVqohVqohVqohVqohVqohVqohVqohVqohVqohVqohVqohVqohVqohVqohVqohVqohW8uRGTsnh0p936vHyHSNNVvFOW/H17kDRk16Y/huu7yJ6Fm404+ZNQ0E8N1Xdf4QdO8uieuFyH6Tpr+1B2WwL/X6/V6vU2q+UIe7JxZ8ZftyZeFtT/fYlPZmjfb7qzmXan9CI3846TmwmbK+F/5MxSGc7kha3lZzsLY1ux5juYBjiOciGZhuYTY4qPur7vs3Oc37VtfsnGEsOP3CJlfv+/1TIji0JiR0YT2ZT29FDae7lUVMuvKztjRhOCYN4W4KG12ldNotYpmNUJu2OcbOqUKwstLXwhFcX7JdpkETFBGrM3argqZUfLYzs7wk8Dyjd12NbbQOx+tzoXF16OEpmM4IqP0T1mIVgGcLQVl6SZKRmmyn44qhAO9LuSnbMdt9bdAnhRNFTHvi+ydedYBcXNnb8YQztJfPWbXhdlZSQa7iMyKjG6zK06tmkvyIBljPAzTXEXVgONMiIv039MrIS6Lswuu6iNRHCWmiZL0SydxTRikPWkomsNsno0THnlwM3WvwqmZDdCVAK2pDKNmIcvOipTGg6e+9CxkPC2elbjWl6blI63G4jGzproXRCkhsuz4wzltFtJsONyaTdMlKyvCx0/X6FmIWRdYLp9zIcvP8jw1EPk+K8LH59t9C/NupPS9i1qa5NGYk9QejiXCK5OxkYXFebLFJOMiaiudrCf3NQdk4SL9CWacqCckZtrK5JW5hSidziG/Lg6pw2zqsaYqCvOjnR3aKMRFeXoo11bVmPdXlUURxquJjSUkPOtIssixZgaMQeWUS7mv5Jf9qZku4nFeSV8ujiUk2RHkXhpZ1a1iIFZn796m1K3y7CDTuPSboHffuuYQQkzSCPwgGoUEzXhW/cMJuxgsjLJwpo6Q8GNl8lArJITxeWUOb+dHJ6svJGbaV84oNgsJ0qBaVbPjr/NaWprlKibMo649vSIkBGlwKi+aZme0Z3Vgx9Rsh+Ux/QevCQlBivuirqaxXj5a7EujBZ4+ftNhpoIQWToahByvCn/LsVio45VVkcrF0rsf9O8PFYQE/fT7R3pDSAgRxbJhzMpRm1c3taBqCInY58HzTSFhQRbj/AZCeVT3o7AQedZcxG1haRFcVIaLrVBXWKwl7f5e3RQSM7sBE2C5jsMC1RUSmg52Ng9vC+l3pV6a2ULU2lRYiCxtXOuP20L+XQljimUAl6srLOrpWRkia25c6SodsiyCsS2mrpCIbeW/ZquJyfHiYH0U2XhBz5YTwf45myCrJES064SBvfKrDxtgvtCaL0MWq/qwq5xni6ZCwrOXAJXXvEM3MDkiEoLIRJJz8kgUWXF3NNoEgrP0xpOVRXlKCIul0ctVfW8yNyw0+cLffORFbRejQ2lFDsBzjv/EfhzvTiupRuRdrFbIJiEAgJR29YTcyh1S6/wWsEpzi6KeuteE5+lkVmO51RNPZw0tLIKVO4RzcX4HqvlRDLDnTA1hvmhTuvdU/4TFbEkvZ1ZNr4Hw5gEfYTXRq7ttmU/YixGf1Lz1YOXWLoAi/bl8LYu9XSIfdkU4+fz8/Pz8PNaGZfz4++m/QTE/FizeO5Etf3ub6OMYmE13mVDwzSm0bQkgpW2vDp/G1Uf3eno2kV1bhc4Wq6tBK6cmWoZhWBaa9OptUGRc8MQ3DN8KmLj1IhClni996Ezwe7+rnxHWQi3UQi3UQi3UwrcQ/r+tkKsunLQUhqoLeVthpLyw7buCPAVeD3Q1sailsO5ukEoJiWwrNBQXWtBWOFe7ITK3tXCr9oCY36Z7XjgzlRaKSWshMJUbInJoL3SZys1w2YHQEQoL6akDoVR4REQ+7UAIG3WrabFdqpVQ4fGCrjsRykTValrZfttCWHkoUq3h/g90I7S5ooVIpx0Jy8/uvthgeK8wUnNINKPOhHUnJ7zCtOIBoafgqI8s6lD4zMbA3jvSOXQpVG9MrDyc1IEQtqpNE80tdCtsPLVB4Yj0QaGtVGdzuaWmvVCtAPyekPthYc0j2OP1oxvoQ6hOf4oL2Yvw/ISP8YDmCvoRqtIU71iceVYIRxWIdAf9CbM9kaOOhAb0KQR/7IE/3//fl9AbuUNteuK4OyFEZEwi3ryp3V4I4YhjBlIH+heOSCx2E/UrhMlYvQ39hmGE4NBRSlGcYCghTEaoqPgc8EkhTAa/b/os8FkhhANPiFGsYVghzAI26DDxAUMLwbaGi1ERQxheCLYx1EyDWVMYQwjSHeZ+BjVsGEcIsBcD9DfCbZXHdkLY9j5qYOk8uzGEEC767VKRb2FcIXh+n/0NIyGMLQQ49halIo0lKCCEbU/PESPdd5C7LoQQJX0M/gwnoIoQpNv9sNFuFOxaCLAlrOMaOu8oZ10JYdppDMcTB1QTAszNrmoqCtcGBYWw6qjDYbjtMFddCkEeO1jdQBp7oKoQYNK6GBk/dJuljoUgd61aI4qfKagtBJhYz0dxfHHoPD/dC0HOn2yNKFwPXkEIsPKfCXF44PSRmV6EAAfOHi7APxJeSAi2+1hrpEbYU076EgJMHqiqfLHuLR/9CQFO/L7BkZk7G15SCPbujuaINI76zESvQoAwvtEckfpOv1noWQjgWFeaI3JykPDiQoATNkQAyOhR9n75AYQgv2qNjO+8Aa4+hBDAu+xyGHejQa49jBAgqr4ujpnL1UBXHkoIEG3ys2UZjcPBrjucECByOUNCGF2GA151SCHAascpdcNBrzmsEGB6mg18xf8AZ4bYFeK18xgAAAAASUVORK5CYII=;" vertex="1" parent="1">
          <mxGeometry x="308.72999999999996" y="529" width="20.67" height="20.67" as="geometry" />
        </mxCell>
        <mxCell id="XBGdtZCjky0aRlrtTspS-69" value="&lt;font style=&quot;font-size: 6px&quot; color=&quot;#66b2ff&quot;&gt;private-subnet&lt;/font&gt;" style="text;html=1;resizable=0;autosize=1;align=center;verticalAlign=middle;points=[];fillColor=none;strokeColor=none;rounded=0;dashed=1;" vertex="1" parent="1">
          <mxGeometry x="290.86" y="540" width="50" height="20" as="geometry" />
        </mxCell>
        <mxCell id="XBGdtZCjky0aRlrtTspS-70" value="" style="whiteSpace=wrap;html=1;strokeColor=#001DBC;fontColor=#ffffff;fillColor=none;" vertex="1" parent="1">
          <mxGeometry x="293.99" y="520.15" width="46.87" height="39.85" as="geometry" />
        </mxCell>
        <mxCell id="XBGdtZCjky0aRlrtTspS-71" value="&lt;font style=&quot;font-size: 6px&quot; color=&quot;#66b2ff&quot;&gt;workers-vnet-centralus&lt;/font&gt;" style="text;html=1;resizable=0;autosize=1;align=center;verticalAlign=middle;points=[];fillColor=none;strokeColor=none;rounded=0;dashed=1;" vertex="1" parent="1">
          <mxGeometry x="270.63" y="560" width="80" height="20" as="geometry" />
        </mxCell>
        <mxCell id="XBGdtZCjky0aRlrtTspS-72" value="" style="whiteSpace=wrap;html=1;strokeColor=#001DBC;fontColor=#ffffff;fillColor=none;strokeWidth=2;" vertex="1" parent="1">
          <mxGeometry x="220" y="490.41" width="150" height="99.33" as="geometry" />
        </mxCell>
        <mxCell id="XBGdtZCjky0aRlrtTspS-73" value="" style="whiteSpace=wrap;html=1;strokeColor=#001DBC;fontColor=#ffffff;fillColor=none;" vertex="1" parent="1">
          <mxGeometry x="260" y="430" width="70" height="30" as="geometry" />
        </mxCell>
        <mxCell id="XBGdtZCjky0aRlrtTspS-74" value="" style="aspect=fixed;html=1;points=[];align=center;image;fontSize=12;image=img/lib/azure2/networking/Virtual_Networks.svg;dashed=1;fillColor=none;" vertex="1" parent="1">
          <mxGeometry x="331.0599999999999" y="465.34000000000003" width="16.75" height="10" as="geometry" />
        </mxCell>
        <mxCell id="XBGdtZCjky0aRlrtTspS-79" style="edgeStyle=orthogonalEdgeStyle;rounded=0;orthogonalLoop=1;jettySize=auto;html=1;entryX=0;entryY=0.5;entryDx=0;entryDy=0;fillColor=#0050ef;strokeColor=#001DBC;startArrow=classic;startFill=1;" edge="1" parent="1" source="XBGdtZCjky0aRlrtTspS-75" target="XBGdtZCjky0aRlrtTspS-43">
          <mxGeometry relative="1" as="geometry" />
        </mxCell>
        <mxCell id="XBGdtZCjky0aRlrtTspS-75" value="" style="whiteSpace=wrap;html=1;dashed=1;strokeColor=#001DBC;fontColor=#ffffff;fillColor=none;" vertex="1" parent="1">
          <mxGeometry x="250" y="420" width="99.82" height="49" as="geometry" />
        </mxCell>
        <mxCell id="XBGdtZCjky0aRlrtTspS-77" value="" style="aspect=fixed;html=1;points=[];align=center;image;fontSize=12;image=img/lib/azure2/networking/Virtual_Networks.svg;dashed=1;fillColor=none;" vertex="1" parent="1">
          <mxGeometry x="661.9099999999999" y="457.19" width="16.75" height="10" as="geometry" />
        </mxCell>
        <mxCell id="XBGdtZCjky0aRlrtTspS-80" value="" style="shape=image;verticalLabelPosition=bottom;labelBackgroundColor=#ffffff;verticalAlign=top;aspect=fixed;imageAspect=0;image=data:image/png,iVBORw0KGgoAAAANSUhEUgAAAOEAAADhCAMAAAAJbSJIAAAAkFBMVEUAccb///8AaMMAb8XF1u3I2/AAbcUAa8QAZ8NEjNAAZcIkgMzk7vjh8PmItOAAcsex0OuLr93w9/z3/P681u5hmdVkntbV5fSxyOfq9fsvhM0AdsjS4/Rinde00Ozd6/dNktN0qNuRuuIRecmhxOYAX8B6q9yKteChweUxic+cweQfgcx0odd2qtzF1e2Ss94a2d+PAAAJ70lEQVR42u3dWZequBYA4OzsNgngUEUQZVBQbKvK2+f2//93/VCMCk5M0ZW8naWnyGemnUACgYGTN/QFycDXk4F8c+HcPL63cMKRTt5Z6C2QYGC/sdBnhBD2877CmBNCCOGbdxUuKflNdPeewk0GJES4byiUcQEkhC7fThhZjJQT9733Eh4okmpibPJGQtsV50BCUMzfRugknNQl6q/eQujFNQWYFiP9en2h/UUZaUxIE+e1hfI7oEiuJRRx+MLCU0LJzcRov8b+hNMvfqP8cqNpTF5OKCcu5ff5fuuqf7BfSRjtfcHIQwlpsAtfRDj99tkDxVcYGU++ItWFMvyyzGd4KZKb1lcoVRXK6LAJxPO8DCkS92OqnFBOTkuLU9aSl1VXir67jVQRes63m3DKu9FlSGSUo7F3vPGE0p6GH/t/ftCknGGXuhKTU3MRH0/O1JYDCaU3W4WTj/2fTewH1KSc92OrliYXNPBjd346/DVZrWYzT8ouhSvXdV3DMGLfspJkseBcUM4Y9k47cyLjnArBOSFBkliWZcSGYbiu64YthROTMY5FImMnLCfOmPlXWyElaieqhVqohVqohVqohVqohVqohVqohVqohVqohVqohVqohVqohVqohVqohVqohVqohVqohVqohVqohVqohVqohVqohVqohVqohW8uRGTsnh0p936vHyHSNNVvFOW/H17kDRk16Y/huu7yJ6Fm404+ZNQ0E8N1Xdf4QdO8uieuFyH6Tpr+1B2WwL/X6/V6vU2q+UIe7JxZ8ZftyZeFtT/fYlPZmjfb7qzmXan9CI3846TmwmbK+F/5MxSGc7kha3lZzsLY1ux5juYBjiOciGZhuYTY4qPur7vs3Oc37VtfsnGEsOP3CJlfv+/1TIji0JiR0YT2ZT29FDae7lUVMuvKztjRhOCYN4W4KG12ldNotYpmNUJu2OcbOqUKwstLXwhFcX7JdpkETFBGrM3argqZUfLYzs7wk8Dyjd12NbbQOx+tzoXF16OEpmM4IqP0T1mIVgGcLQVl6SZKRmmyn44qhAO9LuSnbMdt9bdAnhRNFTHvi+ydedYBcXNnb8YQztJfPWbXhdlZSQa7iMyKjG6zK06tmkvyIBljPAzTXEXVgONMiIv039MrIS6Lswuu6iNRHCWmiZL0SydxTRikPWkomsNsno0THnlwM3WvwqmZDdCVAK2pDKNmIcvOipTGg6e+9CxkPC2elbjWl6blI63G4jGzproXRCkhsuz4wzltFtJsONyaTdMlKyvCx0/X6FmIWRdYLp9zIcvP8jw1EPk+K8LH59t9C/NupPS9i1qa5NGYk9QejiXCK5OxkYXFebLFJOMiaiudrCf3NQdk4SL9CWacqCckZtrK5JW5hSidziG/Lg6pw2zqsaYqCvOjnR3aKMRFeXoo11bVmPdXlUURxquJjSUkPOtIssixZgaMQeWUS7mv5Jf9qZku4nFeSV8ujiUk2RHkXhpZ1a1iIFZn796m1K3y7CDTuPSboHffuuYQQkzSCPwgGoUEzXhW/cMJuxgsjLJwpo6Q8GNl8lArJITxeWUOb+dHJ6svJGbaV84oNgsJ0qBaVbPjr/NaWprlKibMo649vSIkBGlwKi+aZme0Z3Vgx9Rsh+Ux/QevCQlBivuirqaxXj5a7EujBZ4+ftNhpoIQWToahByvCn/LsVio45VVkcrF0rsf9O8PFYQE/fT7R3pDSAgRxbJhzMpRm1c3taBqCInY58HzTSFhQRbj/AZCeVT3o7AQedZcxG1haRFcVIaLrVBXWKwl7f5e3RQSM7sBE2C5jsMC1RUSmg52Ng9vC+l3pV6a2ULU2lRYiCxtXOuP20L+XQljimUAl6srLOrpWRkia25c6SodsiyCsS2mrpCIbeW/ZquJyfHiYH0U2XhBz5YTwf45myCrJES064SBvfKrDxtgvtCaL0MWq/qwq5xni6ZCwrOXAJXXvEM3MDkiEoLIRJJz8kgUWXF3NNoEgrP0xpOVRXlKCIul0ctVfW8yNyw0+cLffORFbRejQ2lFDsBzjv/EfhzvTiupRuRdrFbIJiEAgJR29YTcyh1S6/wWsEpzi6KeuteE5+lkVmO51RNPZw0tLIKVO4RzcX4HqvlRDLDnTA1hvmhTuvdU/4TFbEkvZ1ZNr4Hw5gEfYTXRq7ttmU/YixGf1Lz1YOXWLoAi/bl8LYu9XSIfdkU4+fz8/Pz8PNaGZfz4++m/QTE/FizeO5Etf3ub6OMYmE13mVDwzSm0bQkgpW2vDp/G1Uf3eno2kV1bhc4Wq6tBK6cmWoZhWBaa9OptUGRc8MQ3DN8KmLj1IhClni996Ezwe7+rnxHWQi3UQi3UQi3UwrcQ/r+tkKsunLQUhqoLeVthpLyw7buCPAVeD3Q1sailsO5ukEoJiWwrNBQXWtBWOFe7ITK3tXCr9oCY36Z7XjgzlRaKSWshMJUbInJoL3SZys1w2YHQEQoL6akDoVR4REQ+7UAIG3WrabFdqpVQ4fGCrjsRykTValrZfttCWHkoUq3h/g90I7S5ooVIpx0Jy8/uvthgeK8wUnNINKPOhHUnJ7zCtOIBoafgqI8s6lD4zMbA3jvSOXQpVG9MrDyc1IEQtqpNE80tdCtsPLVB4Yj0QaGtVGdzuaWmvVCtAPyekPthYc0j2OP1oxvoQ6hOf4oL2Yvw/ISP8YDmCvoRqtIU71iceVYIRxWIdAf9CbM9kaOOhAb0KQR/7IE/3//fl9AbuUNteuK4OyFEZEwi3ryp3V4I4YhjBlIH+heOSCx2E/UrhMlYvQ39hmGE4NBRSlGcYCghTEaoqPgc8EkhTAa/b/os8FkhhANPiFGsYVghzAI26DDxAUMLwbaGi1ERQxheCLYx1EyDWVMYQwjSHeZ+BjVsGEcIsBcD9DfCbZXHdkLY9j5qYOk8uzGEEC767VKRb2FcIXh+n/0NIyGMLQQ49halIo0lKCCEbU/PESPdd5C7LoQQJX0M/gwnoIoQpNv9sNFuFOxaCLAlrOMaOu8oZ10JYdppDMcTB1QTAszNrmoqCtcGBYWw6qjDYbjtMFddCkEeO1jdQBp7oKoQYNK6GBk/dJuljoUgd61aI4qfKagtBJhYz0dxfHHoPD/dC0HOn2yNKFwPXkEIsPKfCXF44PSRmV6EAAfOHi7APxJeSAi2+1hrpEbYU076EgJMHqiqfLHuLR/9CQFO/L7BkZk7G15SCPbujuaINI76zESvQoAwvtEckfpOv1noWQjgWFeaI3JykPDiQoATNkQAyOhR9n75AYQgv2qNjO+8Aa4+hBDAu+xyGHejQa49jBAgqr4ujpnL1UBXHkoIEG3ys2UZjcPBrjucECByOUNCGF2GA151SCHAascpdcNBrzmsEGB6mg18xf8AZ4bYFeK18xgAAAAASUVORK5CYII=;" vertex="1" parent="1">
          <mxGeometry x="249.95999999999998" y="357.51" width="20.67" height="20.67" as="geometry" />
        </mxCell>
        <mxCell id="XBGdtZCjky0aRlrtTspS-82" value="&lt;font style=&quot;font-size: 6px&quot; color=&quot;#66b2ff&quot;&gt;default-subnet&lt;/font&gt;" style="text;html=1;resizable=0;autosize=1;align=center;verticalAlign=middle;points=[];fillColor=none;strokeColor=none;rounded=0;dashed=1;" vertex="1" parent="1">
          <mxGeometry x="238.43000000000004" y="370" width="50" height="20" as="geometry" />
        </mxCell>
        <mxCell id="XBGdtZCjky0aRlrtTspS-83" value="" style="shape=image;verticalLabelPosition=bottom;labelBackgroundColor=#ffffff;verticalAlign=top;aspect=fixed;imageAspect=0;image=data:image/png,iVBORw0KGgoAAAANSUhEUgAAAOEAAADhCAMAAAAJbSJIAAAAkFBMVEUAccb///8AaMMAb8XF1u3I2/AAbcUAa8QAZ8NEjNAAZcIkgMzk7vjh8PmItOAAcsex0OuLr93w9/z3/P681u5hmdVkntbV5fSxyOfq9fsvhM0AdsjS4/Rinde00Ozd6/dNktN0qNuRuuIRecmhxOYAX8B6q9yKteChweUxic+cweQfgcx0odd2qtzF1e2Ss94a2d+PAAAJ70lEQVR42u3dWZequBYA4OzsNgngUEUQZVBQbKvK2+f2//93/VCMCk5M0ZW8naWnyGemnUACgYGTN/QFycDXk4F8c+HcPL63cMKRTt5Z6C2QYGC/sdBnhBD2877CmBNCCOGbdxUuKflNdPeewk0GJES4byiUcQEkhC7fThhZjJQT9733Eh4okmpibPJGQtsV50BCUMzfRugknNQl6q/eQujFNQWYFiP9en2h/UUZaUxIE+e1hfI7oEiuJRRx+MLCU0LJzcRov8b+hNMvfqP8cqNpTF5OKCcu5ff5fuuqf7BfSRjtfcHIQwlpsAtfRDj99tkDxVcYGU++ItWFMvyyzGd4KZKb1lcoVRXK6LAJxPO8DCkS92OqnFBOTkuLU9aSl1VXir67jVQRes63m3DKu9FlSGSUo7F3vPGE0p6GH/t/ftCknGGXuhKTU3MRH0/O1JYDCaU3W4WTj/2fTewH1KSc92OrliYXNPBjd346/DVZrWYzT8ouhSvXdV3DMGLfspJkseBcUM4Y9k47cyLjnArBOSFBkliWZcSGYbiu64YthROTMY5FImMnLCfOmPlXWyElaieqhVqohVqohVqohVqohVqohVqohVqohVqohVqohVqohVqohVqohVqohVqohVqohVqohVqohVqohVqohVqohVqohVqohVqohW8uRGTsnh0p936vHyHSNNVvFOW/H17kDRk16Y/huu7yJ6Fm404+ZNQ0E8N1Xdf4QdO8uieuFyH6Tpr+1B2WwL/X6/V6vU2q+UIe7JxZ8ZftyZeFtT/fYlPZmjfb7qzmXan9CI3846TmwmbK+F/5MxSGc7kha3lZzsLY1ux5juYBjiOciGZhuYTY4qPur7vs3Oc37VtfsnGEsOP3CJlfv+/1TIji0JiR0YT2ZT29FDae7lUVMuvKztjRhOCYN4W4KG12ldNotYpmNUJu2OcbOqUKwstLXwhFcX7JdpkETFBGrM3argqZUfLYzs7wk8Dyjd12NbbQOx+tzoXF16OEpmM4IqP0T1mIVgGcLQVl6SZKRmmyn44qhAO9LuSnbMdt9bdAnhRNFTHvi+ydedYBcXNnb8YQztJfPWbXhdlZSQa7iMyKjG6zK06tmkvyIBljPAzTXEXVgONMiIv039MrIS6Lswuu6iNRHCWmiZL0SydxTRikPWkomsNsno0THnlwM3WvwqmZDdCVAK2pDKNmIcvOipTGg6e+9CxkPC2elbjWl6blI63G4jGzproXRCkhsuz4wzltFtJsONyaTdMlKyvCx0/X6FmIWRdYLp9zIcvP8jw1EPk+K8LH59t9C/NupPS9i1qa5NGYk9QejiXCK5OxkYXFebLFJOMiaiudrCf3NQdk4SL9CWacqCckZtrK5JW5hSidziG/Lg6pw2zqsaYqCvOjnR3aKMRFeXoo11bVmPdXlUURxquJjSUkPOtIssixZgaMQeWUS7mv5Jf9qZku4nFeSV8ujiUk2RHkXhpZ1a1iIFZn796m1K3y7CDTuPSboHffuuYQQkzSCPwgGoUEzXhW/cMJuxgsjLJwpo6Q8GNl8lArJITxeWUOb+dHJ6svJGbaV84oNgsJ0qBaVbPjr/NaWprlKibMo649vSIkBGlwKi+aZme0Z3Vgx9Rsh+Ux/QevCQlBivuirqaxXj5a7EujBZ4+ftNhpoIQWToahByvCn/LsVio45VVkcrF0rsf9O8PFYQE/fT7R3pDSAgRxbJhzMpRm1c3taBqCInY58HzTSFhQRbj/AZCeVT3o7AQedZcxG1haRFcVIaLrVBXWKwl7f5e3RQSM7sBE2C5jsMC1RUSmg52Ng9vC+l3pV6a2ULU2lRYiCxtXOuP20L+XQljimUAl6srLOrpWRkia25c6SodsiyCsS2mrpCIbeW/ZquJyfHiYH0U2XhBz5YTwf45myCrJES064SBvfKrDxtgvtCaL0MWq/qwq5xni6ZCwrOXAJXXvEM3MDkiEoLIRJJz8kgUWXF3NNoEgrP0xpOVRXlKCIul0ctVfW8yNyw0+cLffORFbRejQ2lFDsBzjv/EfhzvTiupRuRdrFbIJiEAgJR29YTcyh1S6/wWsEpzi6KeuteE5+lkVmO51RNPZw0tLIKVO4RzcX4HqvlRDLDnTA1hvmhTuvdU/4TFbEkvZ1ZNr4Hw5gEfYTXRq7ttmU/YixGf1Lz1YOXWLoAi/bl8LYu9XSIfdkU4+fz8/Pz8PNaGZfz4++m/QTE/FizeO5Etf3ub6OMYmE13mVDwzSm0bQkgpW2vDp/G1Uf3eno2kV1bhc4Wq6tBK6cmWoZhWBaa9OptUGRc8MQ3DN8KmLj1IhClni996Ezwe7+rnxHWQi3UQi3UQi3UwrcQ/r+tkKsunLQUhqoLeVthpLyw7buCPAVeD3Q1sailsO5ukEoJiWwrNBQXWtBWOFe7ITK3tXCr9oCY36Z7XjgzlRaKSWshMJUbInJoL3SZys1w2YHQEQoL6akDoVR4REQ+7UAIG3WrabFdqpVQ4fGCrjsRykTValrZfttCWHkoUq3h/g90I7S5ooVIpx0Jy8/uvthgeK8wUnNINKPOhHUnJ7zCtOIBoafgqI8s6lD4zMbA3jvSOXQpVG9MrDyc1IEQtqpNE80tdCtsPLVB4Yj0QaGtVGdzuaWmvVCtAPyekPthYc0j2OP1oxvoQ6hOf4oL2Yvw/ISP8YDmCvoRqtIU71iceVYIRxWIdAf9CbM9kaOOhAb0KQR/7IE/3//fl9AbuUNteuK4OyFEZEwi3ryp3V4I4YhjBlIH+heOSCx2E/UrhMlYvQ39hmGE4NBRSlGcYCghTEaoqPgc8EkhTAa/b/os8FkhhANPiFGsYVghzAI26DDxAUMLwbaGi1ERQxheCLYx1EyDWVMYQwjSHeZ+BjVsGEcIsBcD9DfCbZXHdkLY9j5qYOk8uzGEEC767VKRb2FcIXh+n/0NIyGMLQQ49halIo0lKCCEbU/PESPdd5C7LoQQJX0M/gwnoIoQpNv9sNFuFOxaCLAlrOMaOu8oZ10JYdppDMcTB1QTAszNrmoqCtcGBYWw6qjDYbjtMFddCkEeO1jdQBp7oKoQYNK6GBk/dJuljoUgd61aI4qfKagtBJhYz0dxfHHoPD/dC0HOn2yNKFwPXkEIsPKfCXF44PSRmV6EAAfOHi7APxJeSAi2+1hrpEbYU076EgJMHqiqfLHuLR/9CQFO/L7BkZk7G15SCPbujuaINI76zESvQoAwvtEckfpOv1noWQjgWFeaI3JykPDiQoATNkQAyOhR9n75AYQgv2qNjO+8Aa4+hBDAu+xyGHejQa49jBAgqr4ujpnL1UBXHkoIEG3ys2UZjcPBrjucECByOUNCGF2GA151SCHAascpdcNBrzmsEGB6mg18xf8AZ4bYFeK18xgAAAAASUVORK5CYII=;" vertex="1" parent="1">
          <mxGeometry x="297.53999999999996" y="357.51" width="20.67" height="20.67" as="geometry" />
        </mxCell>
        <mxCell id="XBGdtZCjky0aRlrtTspS-84" value="&lt;font style=&quot;font-size: 6px&quot; color=&quot;#66b2ff&quot;&gt;useast2-dev-rds-subnet&lt;/font&gt;" style="text;html=1;resizable=0;autosize=1;align=center;verticalAlign=middle;points=[];fillColor=none;strokeColor=none;rounded=0;dashed=1;" vertex="1" parent="1">
          <mxGeometry x="285.76000000000005" y="370" width="80" height="20" as="geometry" />
        </mxCell>
        <mxCell id="XBGdtZCjky0aRlrtTspS-85" value="" style="whiteSpace=wrap;html=1;strokeColor=#001DBC;fontColor=#ffffff;fillColor=none;" vertex="1" parent="1">
          <mxGeometry x="292.88" y="350" width="70" height="40" as="geometry" />
        </mxCell>
        <mxCell id="XBGdtZCjky0aRlrtTspS-86" value="" style="whiteSpace=wrap;html=1;strokeColor=#001DBC;fontColor=#ffffff;fillColor=none;" vertex="1" parent="1">
          <mxGeometry x="240" y="350" width="45.76" height="40" as="geometry" />
        </mxCell>
        <mxCell id="XBGdtZCjky0aRlrtTspS-87" value="" style="aspect=fixed;html=1;points=[];align=center;image;fontSize=12;image=img/lib/azure2/networking/Virtual_Networks.svg;dashed=1;fillColor=none;" vertex="1" parent="1">
          <mxGeometry x="492.3199999999999" y="565" width="16.75" height="10" as="geometry" />
        </mxCell>
        <mxCell id="XBGdtZCjky0aRlrtTspS-88" value="" style="aspect=fixed;html=1;points=[];align=center;image;fontSize=12;image=img/lib/azure2/networking/Virtual_Networks.svg;dashed=1;fillColor=none;" vertex="1" parent="1">
          <mxGeometry x="346.0099999999999" y="394.33" width="16.75" height="10" as="geometry" />
        </mxCell>
        <mxCell id="XBGdtZCjky0aRlrtTspS-105" style="edgeStyle=orthogonalEdgeStyle;rounded=0;orthogonalLoop=1;jettySize=auto;html=1;entryX=0;entryY=0.5;entryDx=0;entryDy=0;fillColor=#0050ef;strokeColor=#001DBC;startArrow=classic;startFill=1;" edge="1" parent="1" source="XBGdtZCjky0aRlrtTspS-89" target="XBGdtZCjky0aRlrtTspS-99">
          <mxGeometry relative="1" as="geometry">
            <Array as="points">
              <mxPoint x="570" y="370" />
              <mxPoint x="570" y="355" />
            </Array>
          </mxGeometry>
        </mxCell>
        <mxCell id="XBGdtZCjky0aRlrtTspS-89" value="" style="whiteSpace=wrap;html=1;dashed=1;strokeColor=#001DBC;fontColor=#ffffff;fillColor=none;" vertex="1" parent="1">
          <mxGeometry x="230" y="340" width="140" height="60" as="geometry" />
        </mxCell>
        <mxCell id="XBGdtZCjky0aRlrtTspS-90" value="&lt;font style=&quot;font-size: 7px&quot; color=&quot;#66b2ff&quot;&gt;bv-dev-network&lt;/font&gt;" style="text;html=1;resizable=0;autosize=1;align=center;verticalAlign=middle;points=[];fillColor=none;strokeColor=none;rounded=0;dashed=1;" vertex="1" parent="1">
          <mxGeometry x="217.93000000000004" y="320" width="60" height="20" as="geometry" />
        </mxCell>
        <mxCell id="XBGdtZCjky0aRlrtTspS-91" value="&lt;font style=&quot;font-size: 6px&quot; color=&quot;#66b2ff&quot;&gt;vnet-dev-useast2&lt;/font&gt;" style="text;html=1;resizable=0;autosize=1;align=center;verticalAlign=middle;points=[];fillColor=none;strokeColor=none;rounded=0;dashed=1;" vertex="1" parent="1">
          <mxGeometry x="293.99" y="384.33" width="60" height="20" as="geometry" />
        </mxCell>
        <mxCell id="XBGdtZCjky0aRlrtTspS-92" value="" style="aspect=fixed;html=1;points=[];align=center;image;fontSize=12;image=img/lib/azure2/general/Resource_Groups.svg;" vertex="1" parent="1">
          <mxGeometry x="189.99999999999997" y="211.19" width="20" height="18.81" as="geometry" />
        </mxCell>
        <mxCell id="XBGdtZCjky0aRlrtTspS-93" value="" style="aspect=fixed;html=1;points=[];align=center;image;fontSize=12;image=img/lib/azure2/general/Resource_Groups.svg;" vertex="1" parent="1">
          <mxGeometry x="390" y="490" width="20" height="18.81" as="geometry" />
        </mxCell>
        <mxCell id="XBGdtZCjky0aRlrtTspS-94" value="" style="aspect=fixed;html=1;points=[];align=center;image;fontSize=12;image=img/lib/azure2/general/Resource_Groups.svg;" vertex="1" parent="1">
          <mxGeometry x="204.03999999999996" y="321.19" width="20" height="18.81" as="geometry" />
        </mxCell>
        <mxCell id="XBGdtZCjky0aRlrtTspS-95" value="" style="whiteSpace=wrap;html=1;strokeColor=#001DBC;fontColor=#ffffff;fillColor=none;strokeWidth=2;" vertex="1" parent="1">
          <mxGeometry x="401.86" y="489.34" width="118.14" height="100.66" as="geometry" />
        </mxCell>
        <mxCell id="XBGdtZCjky0aRlrtTspS-96" value="" style="whiteSpace=wrap;html=1;strokeColor=#001DBC;fontColor=#ffffff;fillColor=none;strokeWidth=2;" vertex="1" parent="1">
          <mxGeometry x="213.48" y="321.19" width="166.52" height="158.81" as="geometry" />
        </mxCell>
        <mxCell id="XBGdtZCjky0aRlrtTspS-123" style="edgeStyle=orthogonalEdgeStyle;rounded=0;orthogonalLoop=1;jettySize=auto;html=1;entryX=0;entryY=0.5;entryDx=0;entryDy=0;startArrow=classic;startFill=1;endArrow=classic;endFill=1;fillColor=#0050ef;strokeColor=#001DBC;" edge="1" parent="1" source="XBGdtZCjky0aRlrtTspS-97" target="XBGdtZCjky0aRlrtTspS-120">
          <mxGeometry relative="1" as="geometry">
            <Array as="points">
              <mxPoint x="580" y="540" />
              <mxPoint x="580" y="501" />
            </Array>
          </mxGeometry>
        </mxCell>
        <mxCell id="XBGdtZCjky0aRlrtTspS-97" value="" style="whiteSpace=wrap;html=1;dashed=1;strokeColor=#001DBC;fontColor=#ffffff;fillColor=none;" vertex="1" parent="1">
          <mxGeometry x="410" y="510" width="98.38" height="60" as="geometry" />
        </mxCell>
        <mxCell id="XBGdtZCjky0aRlrtTspS-98" value="" style="whiteSpace=wrap;html=1;dashed=1;strokeColor=#001DBC;fontColor=#ffffff;fillColor=none;" vertex="1" parent="1">
          <mxGeometry x="601.62" y="379.33" width="78.38" height="30" as="geometry" />
        </mxCell>
        <mxCell id="XBGdtZCjky0aRlrtTspS-99" value="" style="whiteSpace=wrap;html=1;dashed=1;strokeColor=#001DBC;fontColor=#ffffff;fillColor=none;" vertex="1" parent="1">
          <mxGeometry x="600.9499999999999" y="340" width="78.38" height="30" as="geometry" />
        </mxCell>
        <mxCell id="XBGdtZCjky0aRlrtTspS-102" value="&lt;font style=&quot;font-size: 6px&quot; color=&quot;#66b2ff&quot;&gt;VNet-Peering&lt;/font&gt;" style="text;html=1;resizable=0;autosize=1;align=center;verticalAlign=middle;points=[];fillColor=none;strokeColor=none;rounded=0;dashed=1;" vertex="1" parent="1">
          <mxGeometry x="502.76" y="520" width="50" height="20" as="geometry" />
        </mxCell>
        <mxCell id="XBGdtZCjky0aRlrtTspS-103" value="&lt;font style=&quot;font-size: 6px&quot; color=&quot;#66b2ff&quot;&gt;vnet-us-east2-fw&lt;/font&gt;" style="text;html=1;resizable=0;autosize=1;align=center;verticalAlign=middle;points=[];fillColor=none;strokeColor=none;rounded=0;dashed=1;" vertex="1" parent="1">
          <mxGeometry x="603.78" y="345" width="60" height="20" as="geometry" />
        </mxCell>
        <mxCell id="XBGdtZCjky0aRlrtTspS-106" style="edgeStyle=orthogonalEdgeStyle;rounded=0;orthogonalLoop=1;jettySize=auto;html=1;endArrow=none;endFill=0;startArrow=classic;startFill=1;fillColor=#0050ef;strokeColor=#001DBC;" edge="1" parent="1" source="XBGdtZCjky0aRlrtTspS-104">
          <mxGeometry relative="1" as="geometry">
            <mxPoint x="410" y="370" as="targetPoint" />
            <Array as="points">
              <mxPoint x="570" y="396" />
              <mxPoint x="570" y="370" />
            </Array>
          </mxGeometry>
        </mxCell>
        <mxCell id="XBGdtZCjky0aRlrtTspS-104" value="&lt;font style=&quot;font-size: 6px&quot; color=&quot;#66b2ff&quot;&gt;Vnet-prod-USEast-2&lt;/font&gt;" style="text;html=1;resizable=0;autosize=1;align=center;verticalAlign=middle;points=[];fillColor=none;strokeColor=none;rounded=0;dashed=1;" vertex="1" parent="1">
          <mxGeometry x="603.78" y="386.25000000000006" width="70" height="20" as="geometry" />
        </mxCell>
        <mxCell id="XBGdtZCjky0aRlrtTspS-107" value="" style="shape=image;verticalLabelPosition=bottom;labelBackgroundColor=#ffffff;verticalAlign=top;aspect=fixed;imageAspect=0;image=data:image/png,iVBORw0KGgoAAAANSUhEUgAAAOEAAADhCAMAAAAJbSJIAAAAkFBMVEUAccb///8AaMMAb8XF1u3I2/AAbcUAa8QAZ8NEjNAAZcIkgMzk7vjh8PmItOAAcsex0OuLr93w9/z3/P681u5hmdVkntbV5fSxyOfq9fsvhM0AdsjS4/Rinde00Ozd6/dNktN0qNuRuuIRecmhxOYAX8B6q9yKteChweUxic+cweQfgcx0odd2qtzF1e2Ss94a2d+PAAAJ70lEQVR42u3dWZequBYA4OzsNgngUEUQZVBQbKvK2+f2//93/VCMCk5M0ZW8naWnyGemnUACgYGTN/QFycDXk4F8c+HcPL63cMKRTt5Z6C2QYGC/sdBnhBD2877CmBNCCOGbdxUuKflNdPeewk0GJES4byiUcQEkhC7fThhZjJQT9733Eh4okmpibPJGQtsV50BCUMzfRugknNQl6q/eQujFNQWYFiP9en2h/UUZaUxIE+e1hfI7oEiuJRRx+MLCU0LJzcRov8b+hNMvfqP8cqNpTF5OKCcu5ff5fuuqf7BfSRjtfcHIQwlpsAtfRDj99tkDxVcYGU++ItWFMvyyzGd4KZKb1lcoVRXK6LAJxPO8DCkS92OqnFBOTkuLU9aSl1VXir67jVQRes63m3DKu9FlSGSUo7F3vPGE0p6GH/t/ftCknGGXuhKTU3MRH0/O1JYDCaU3W4WTj/2fTewH1KSc92OrliYXNPBjd346/DVZrWYzT8ouhSvXdV3DMGLfspJkseBcUM4Y9k47cyLjnArBOSFBkliWZcSGYbiu64YthROTMY5FImMnLCfOmPlXWyElaieqhVqohVqohVqohVqohVqohVqohVqohVqohVqohVqohVqohVqohVqohVqohVqohVqohVqohVqohVqohVqohVqohVqohVqohW8uRGTsnh0p936vHyHSNNVvFOW/H17kDRk16Y/huu7yJ6Fm404+ZNQ0E8N1Xdf4QdO8uieuFyH6Tpr+1B2WwL/X6/V6vU2q+UIe7JxZ8ZftyZeFtT/fYlPZmjfb7qzmXan9CI3846TmwmbK+F/5MxSGc7kha3lZzsLY1ux5juYBjiOciGZhuYTY4qPur7vs3Oc37VtfsnGEsOP3CJlfv+/1TIji0JiR0YT2ZT29FDae7lUVMuvKztjRhOCYN4W4KG12ldNotYpmNUJu2OcbOqUKwstLXwhFcX7JdpkETFBGrM3argqZUfLYzs7wk8Dyjd12NbbQOx+tzoXF16OEpmM4IqP0T1mIVgGcLQVl6SZKRmmyn44qhAO9LuSnbMdt9bdAnhRNFTHvi+ydedYBcXNnb8YQztJfPWbXhdlZSQa7iMyKjG6zK06tmkvyIBljPAzTXEXVgONMiIv039MrIS6Lswuu6iNRHCWmiZL0SydxTRikPWkomsNsno0THnlwM3WvwqmZDdCVAK2pDKNmIcvOipTGg6e+9CxkPC2elbjWl6blI63G4jGzproXRCkhsuz4wzltFtJsONyaTdMlKyvCx0/X6FmIWRdYLp9zIcvP8jw1EPk+K8LH59t9C/NupPS9i1qa5NGYk9QejiXCK5OxkYXFebLFJOMiaiudrCf3NQdk4SL9CWacqCckZtrK5JW5hSidziG/Lg6pw2zqsaYqCvOjnR3aKMRFeXoo11bVmPdXlUURxquJjSUkPOtIssixZgaMQeWUS7mv5Jf9qZku4nFeSV8ujiUk2RHkXhpZ1a1iIFZn796m1K3y7CDTuPSboHffuuYQQkzSCPwgGoUEzXhW/cMJuxgsjLJwpo6Q8GNl8lArJITxeWUOb+dHJ6svJGbaV84oNgsJ0qBaVbPjr/NaWprlKibMo649vSIkBGlwKi+aZme0Z3Vgx9Rsh+Ux/QevCQlBivuirqaxXj5a7EujBZ4+ftNhpoIQWToahByvCn/LsVio45VVkcrF0rsf9O8PFYQE/fT7R3pDSAgRxbJhzMpRm1c3taBqCInY58HzTSFhQRbj/AZCeVT3o7AQedZcxG1haRFcVIaLrVBXWKwl7f5e3RQSM7sBE2C5jsMC1RUSmg52Ng9vC+l3pV6a2ULU2lRYiCxtXOuP20L+XQljimUAl6srLOrpWRkia25c6SodsiyCsS2mrpCIbeW/ZquJyfHiYH0U2XhBz5YTwf45myCrJES064SBvfKrDxtgvtCaL0MWq/qwq5xni6ZCwrOXAJXXvEM3MDkiEoLIRJJz8kgUWXF3NNoEgrP0xpOVRXlKCIul0ctVfW8yNyw0+cLffORFbRejQ2lFDsBzjv/EfhzvTiupRuRdrFbIJiEAgJR29YTcyh1S6/wWsEpzi6KeuteE5+lkVmO51RNPZw0tLIKVO4RzcX4HqvlRDLDnTA1hvmhTuvdU/4TFbEkvZ1ZNr4Hw5gEfYTXRq7ttmU/YixGf1Lz1YOXWLoAi/bl8LYu9XSIfdkU4+fz8/Pz8PNaGZfz4++m/QTE/FizeO5Etf3ub6OMYmE13mVDwzSm0bQkgpW2vDp/G1Uf3eno2kV1bhc4Wq6tBK6cmWoZhWBaa9OptUGRc8MQ3DN8KmLj1IhClni996Ezwe7+rnxHWQi3UQi3UQi3UwrcQ/r+tkKsunLQUhqoLeVthpLyw7buCPAVeD3Q1sailsO5ukEoJiWwrNBQXWtBWOFe7ITK3tXCr9oCY36Z7XjgzlRaKSWshMJUbInJoL3SZys1w2YHQEQoL6akDoVR4REQ+7UAIG3WrabFdqpVQ4fGCrjsRykTValrZfttCWHkoUq3h/g90I7S5ooVIpx0Jy8/uvthgeK8wUnNINKPOhHUnJ7zCtOIBoafgqI8s6lD4zMbA3jvSOXQpVG9MrDyc1IEQtqpNE80tdCtsPLVB4Yj0QaGtVGdzuaWmvVCtAPyekPthYc0j2OP1oxvoQ6hOf4oL2Yvw/ISP8YDmCvoRqtIU71iceVYIRxWIdAf9CbM9kaOOhAb0KQR/7IE/3//fl9AbuUNteuK4OyFEZEwi3ryp3V4I4YhjBlIH+heOSCx2E/UrhMlYvQ39hmGE4NBRSlGcYCghTEaoqPgc8EkhTAa/b/os8FkhhANPiFGsYVghzAI26DDxAUMLwbaGi1ERQxheCLYx1EyDWVMYQwjSHeZ+BjVsGEcIsBcD9DfCbZXHdkLY9j5qYOk8uzGEEC767VKRb2FcIXh+n/0NIyGMLQQ49halIo0lKCCEbU/PESPdd5C7LoQQJX0M/gwnoIoQpNv9sNFuFOxaCLAlrOMaOu8oZ10JYdppDMcTB1QTAszNrmoqCtcGBYWw6qjDYbjtMFddCkEeO1jdQBp7oKoQYNK6GBk/dJuljoUgd61aI4qfKagtBJhYz0dxfHHoPD/dC0HOn2yNKFwPXkEIsPKfCXF44PSRmV6EAAfOHi7APxJeSAi2+1hrpEbYU076EgJMHqiqfLHuLR/9CQFO/L7BkZk7G15SCPbujuaINI76zESvQoAwvtEckfpOv1noWQjgWFeaI3JykPDiQoATNkQAyOhR9n75AYQgv2qNjO+8Aa4+hBDAu+xyGHejQa49jBAgqr4ujpnL1UBXHkoIEG3ys2UZjcPBrjucECByOUNCGF2GA151SCHAascpdcNBrzmsEGB6mg18xf8AZ4bYFeK18xgAAAAASUVORK5CYII=;" vertex="1" parent="1">
          <mxGeometry x="430" y="529" width="20.67" height="20.67" as="geometry" />
        </mxCell>
        <mxCell id="XBGdtZCjky0aRlrtTspS-108" value="&lt;font color=&quot;#66b2ff&quot;&gt;&lt;span style=&quot;font-size: 6px&quot;&gt;itsecsubnet1-dev-useast2&lt;/span&gt;&lt;/font&gt;" style="text;html=1;resizable=0;autosize=1;align=center;verticalAlign=middle;points=[];fillColor=none;strokeColor=none;rounded=0;dashed=1;" vertex="1" parent="1">
          <mxGeometry x="416.6600000000001" y="540" width="80" height="20" as="geometry" />
        </mxCell>
        <mxCell id="XBGdtZCjky0aRlrtTspS-109" value="" style="whiteSpace=wrap;html=1;strokeColor=#001DBC;fontColor=#ffffff;fillColor=none;" vertex="1" parent="1">
          <mxGeometry x="421.66" y="520.15" width="78.34" height="39.85" as="geometry" />
        </mxCell>
        <mxCell id="XBGdtZCjky0aRlrtTspS-110" value="&lt;font color=&quot;#66b2ff&quot;&gt;&lt;span style=&quot;font-size: 6px&quot;&gt;RemoteVnetToHubPeering&lt;/span&gt;&lt;/font&gt;" style="text;html=1;resizable=0;autosize=1;align=center;verticalAlign=middle;points=[];fillColor=none;strokeColor=none;rounded=0;dashed=1;" vertex="1" parent="1">
          <mxGeometry x="596.52" y="535" width="90" height="20" as="geometry" />
        </mxCell>
        <mxCell id="XBGdtZCjky0aRlrtTspS-111" value="&lt;font color=&quot;#66b2ff&quot;&gt;&lt;span style=&quot;font-size: 6px&quot;&gt;vnet-us-east2-fw&lt;/span&gt;&lt;/font&gt;" style="text;html=1;resizable=0;autosize=1;align=center;verticalAlign=middle;points=[];fillColor=none;strokeColor=none;rounded=0;dashed=1;" vertex="1" parent="1">
          <mxGeometry x="606.52" y="489.34" width="60" height="20" as="geometry" />
        </mxCell>
        <mxCell id="XBGdtZCjky0aRlrtTspS-112" value="&lt;font color=&quot;#66b2ff&quot;&gt;&lt;span style=&quot;font-size: 6px&quot;&gt;itsecvnet-dev-useast2&lt;/span&gt;&lt;/font&gt;" style="text;html=1;resizable=0;autosize=1;align=center;verticalAlign=middle;points=[];fillColor=none;strokeColor=none;rounded=0;dashed=1;" vertex="1" parent="1">
          <mxGeometry x="424.19000000000005" y="555" width="70" height="20" as="geometry" />
        </mxCell>
        <mxCell id="XBGdtZCjky0aRlrtTspS-113" value="" style="aspect=fixed;html=1;points=[];align=center;image;fontSize=12;image=img/lib/azure2/networking/Virtual_Networks.svg;dashed=1;fillColor=none;" vertex="1" parent="1">
          <mxGeometry x="666.5199999999999" y="365" width="16.75" height="10" as="geometry" />
        </mxCell>
        <mxCell id="XBGdtZCjky0aRlrtTspS-114" value="" style="aspect=fixed;html=1;points=[];align=center;image;fontSize=12;image=img/lib/azure2/networking/Virtual_Networks.svg;dashed=1;fillColor=none;" vertex="1" parent="1">
          <mxGeometry x="661.9099999999999" y="404.33" width="16.75" height="10" as="geometry" />
        </mxCell>
        <mxCell id="XBGdtZCjky0aRlrtTspS-115" value="" style="aspect=fixed;html=1;points=[];align=center;image;fontSize=12;image=img/lib/azure2/networking/Virtual_Networks.svg;dashed=1;fillColor=none;" vertex="1" parent="1">
          <mxGeometry x="657.0299999999999" y="560" width="16.75" height="10" as="geometry" />
        </mxCell>
        <mxCell id="XBGdtZCjky0aRlrtTspS-116" value="" style="aspect=fixed;html=1;points=[];align=center;image;fontSize=12;image=img/lib/azure2/networking/Virtual_Networks.svg;dashed=1;fillColor=none;" vertex="1" parent="1">
          <mxGeometry x="657.0299999999999" y="511.19" width="16.75" height="10" as="geometry" />
        </mxCell>
        <mxCell id="XBGdtZCjky0aRlrtTspS-135" style="edgeStyle=orthogonalEdgeStyle;rounded=0;orthogonalLoop=1;jettySize=auto;html=1;startArrow=classic;startFill=1;endArrow=none;endFill=0;fillColor=#0050ef;strokeColor=#001DBC;" edge="1" parent="1" source="XBGdtZCjky0aRlrtTspS-118">
          <mxGeometry relative="1" as="geometry">
            <mxPoint x="570" y="260" as="targetPoint" />
          </mxGeometry>
        </mxCell>
        <mxCell id="XBGdtZCjky0aRlrtTspS-118" value="" style="whiteSpace=wrap;html=1;dashed=1;strokeColor=#001DBC;fontColor=#ffffff;fillColor=none;" vertex="1" parent="1">
          <mxGeometry x="599.5899999999999" y="267.5" width="78.38" height="30" as="geometry" />
        </mxCell>
        <mxCell id="XBGdtZCjky0aRlrtTspS-124" style="edgeStyle=orthogonalEdgeStyle;rounded=0;orthogonalLoop=1;jettySize=auto;html=1;startArrow=classic;startFill=1;endArrow=none;endFill=0;fillColor=#0050ef;strokeColor=#001DBC;" edge="1" parent="1" source="XBGdtZCjky0aRlrtTspS-119">
          <mxGeometry relative="1" as="geometry">
            <mxPoint x="530" y="540" as="targetPoint" />
            <Array as="points">
              <mxPoint x="580" y="550" />
              <mxPoint x="580" y="540" />
            </Array>
          </mxGeometry>
        </mxCell>
        <mxCell id="XBGdtZCjky0aRlrtTspS-119" value="" style="whiteSpace=wrap;html=1;dashed=1;strokeColor=#001DBC;fontColor=#ffffff;fillColor=none;" vertex="1" parent="1">
          <mxGeometry x="600.28" y="530" width="79.72" height="35" as="geometry" />
        </mxCell>
        <mxCell id="XBGdtZCjky0aRlrtTspS-120" value="" style="whiteSpace=wrap;html=1;dashed=1;strokeColor=#001DBC;fontColor=#ffffff;fillColor=none;" vertex="1" parent="1">
          <mxGeometry x="600.2800000000001" y="486.19" width="78.38" height="30" as="geometry" />
        </mxCell>
        <mxCell id="XBGdtZCjky0aRlrtTspS-126" value="&lt;font style=&quot;font-size: 6px&quot; color=&quot;#66b2ff&quot;&gt;VNet-Peering&lt;/font&gt;" style="text;html=1;resizable=0;autosize=1;align=center;verticalAlign=middle;points=[];fillColor=none;strokeColor=none;rounded=0;dashed=1;" vertex="1" parent="1">
          <mxGeometry x="380" y="350" width="50" height="20" as="geometry" />
        </mxCell>
        <mxCell id="XBGdtZCjky0aRlrtTspS-130" value="" style="aspect=fixed;html=1;points=[];align=center;image;fontSize=12;image=img/lib/azure2/compute/Virtual_Machine.svg;fillColor=none;" vertex="1" parent="1">
          <mxGeometry x="349.79999999999995" y="244.34" width="22.92" height="21.25" as="geometry" />
        </mxCell>
        <mxCell id="XBGdtZCjky0aRlrtTspS-131" value="" style="aspect=fixed;html=1;points=[];align=center;image;fontSize=12;image=img/lib/azure2/compute/Virtual_Machine.svg;fillColor=none;" vertex="1" parent="1">
          <mxGeometry x="378.94" y="244.34" width="22.92" height="21.25" as="geometry" />
        </mxCell>
        <mxCell id="XBGdtZCjky0aRlrtTspS-136" value="&lt;font style=&quot;font-size: 6px&quot; color=&quot;#66b2ff&quot;&gt;azurebatch-cloudservice-lb&lt;/font&gt;" style="text;html=1;resizable=0;autosize=1;align=center;verticalAlign=middle;points=[];fillColor=none;strokeColor=none;rounded=0;" vertex="1" parent="1">
          <mxGeometry x="229.38000000000002" y="400" width="90" height="20" as="geometry" />
        </mxCell>
        <mxCell id="XBGdtZCjky0aRlrtTspS-137" value="" style="aspect=fixed;html=1;points=[];align=center;image;fontSize=12;image=img/lib/azure2/networking/Load_Balancers.svg;" vertex="1" parent="1">
          <mxGeometry x="213.48" y="400" width="22" height="22" as="geometry" />
        </mxCell>
      </root>
    </mxGraphModel>
  </diagram>
</mxfile>
